<?xml version="1.0" encoding="UTF-8"?>
<svg id="Layer_2" data-name="Layer 2" xmlns="http://www.w3.org/2000/svg" viewBox="0 0 614.26 171.71">
  <defs>
    <style>
      .cls-1 {
        fill: #fff;
        stroke-width: 0px;
      }
    </style>
  </defs>
  <g id="Layer_1-2" data-name="Layer 1">
    <g>
      <path class="cls-1" d="M84.44,67.53c3.06-3.34,5.25-6.36,8.03-8.67,11.92-9.89,25.81-12.21,40.78-10.12,13.34,1.86,23.26,8.33,28.82,20.89,3.18,7.19,4.41,14.78,4.48,22.56.09,9.74.02,19.47.02,29.21,0,7.86-.36,15.75.13,23.58.48,7.66,1.85,15.26,2.89,23.34-5.21,0-10.91.12-16.59-.13-.87-.04-2.1-1.64-2.41-2.74-1.09-3.96-1.88-8-2.74-12.02-.28-1.32-.48-2.65-.76-4.23-2.48,3.95-4.37,7.91-7.12,11.15-9.34,11.02-21.73,12.87-35.06,10.37-11.57-2.17-20.32-8.36-23.76-20.11-3.76-12.87-1.17-24.79,8.44-34.13,7.29-7.09,15.83-12.87,23.74-19.32,2.02-1.65,3.97-3.45,5.66-5.43,4.11-4.82,4.84-13.24-4.37-15.91-5.61-1.63-11.28-3.07-16.92-4.62-3.95-1.08-7.9-2.19-13.26-3.67ZM146.72,108.35c-.18-.01-.35-.02-.53-.03,0-4.24.13-8.49-.03-12.72-.36-9.96-.56-19.95-4.11-29.47-3.9-10.48-10.91-15.18-21.87-14.09-6.56.65-12.34,3.03-15.56,9.43-2.41,4.78-1.29,7.63,3.79,9.04,2.88.8,5.86,1.21,8.75,1.98,13.19,3.5,17.36,13.85,10.28,25.52-1.16,1.91-2.48,3.74-3.91,5.45-5.37,6.39-11,12.56-16.2,19.09-6.91,8.68-8.57,18.64-5.85,29.28,1.85,7.25,5.86,12.75,13.76,14.04,6.1.99,11.94-.13,17.14-3.64,8.11-5.46,11.3-13.88,12.37-22.92,1.22-10.25,1.36-20.62,1.96-30.94Z"/>
      <path class="cls-1" d="M73.26,96.21c-6.99-4.92-14.62-7.21-22.63-7.64-8.42-.45-16.89-.1-25.93-.1,1.19,26.42-2.33,53.03,3.68,79.58H0c4.89-18.27,3.25-36.79,3.41-55.19.21-24.47.33-48.95.05-73.42-.14-11.92-1.27-23.83-1.95-35.85h94.91c.81,5.86,1.6,11.59,2.55,18.45C76.18,5.67,50.72,7.25,25.14,7.76v76.13c16.26-.63,32.99,2.57,48.12-7.88v20.2Z"/>
      <path class="cls-1" d="M362.29,154.74c-7.17,9-16,14.78-27.3,16.29-23.81,3.18-44.17-8.58-52.44-31.54-8.96-24.83-7.83-49.44,6.5-72.19,10.44-16.58,39.97-27.65,57.71-14.46,10.69,7.95,14.21,24.72,13.18,36.47-.17,1.88-.43,3.46-.67,4.61-1.08,2.97-11.67,30.99-34.62,35.31-3.66.69-13.51,2.54-21.55-3.21-1.35-.97-7.9-5.91-8.89-13.54-.25-1.93-.12-3.61.03-5.07.36-3.63,1.46-7.16,3.24-10.5,2.1-3.92,4.73-4.87,8.8-3.12,5.01,2.16,7.3,6.33,8.67,11.38.82,3.03,1.99,6.07,3.57,8.77,1.35,2.29,3.77,1.77,5.24-.5.81-1.26,1.86-2.55,3.11-3.3,3.1-1.85,4.76-4.28,4.61-7.98-.08-2.04.34-4,1.92-5.62,3.09-3.16,2.2-6.28-2.14-7.18-3.59-.75-7.24-1.23-10.88-1.63-6.41-.7-12.64-.22-18.29,3.36-.06.04-.21-.06-.56-.17,6.01-4.95,12.51-8.33,20.27-8.93,3.18-.24,6.39-.42,9.52-.98,1.23-.21,3.11-1.23,3.26-2.12.24-1.46-.23-3.61-1.24-4.58-1.81-1.73-3.34-3.51-4.39-5.76-.57-1.24-1.55-1.87-2.99-1.49-6.42,1.69-12.4,4.11-16.51,9.73-.43.59-.98,1.11-1.47,1.66-.22-.17-.44-.34-.65-.51,2.89-4.4,5.66-8.89,8.72-13.18,2.14-3,2.18-3.33-1.33-4.68-.19-.08-.38-.14-.58-.21-4.63-1.59-6.28-.57-7.39,4.13-.49,2.07-1.16,4.26-2.37,5.96-1.94,2.73-2.78,5.58-2.3,8.81.68,4.58-.55,8.6-3.29,12.25-2.69,3.57-4.4,7.62-5.75,11.87-6.8,21.4,3.02,44.99,18.89,55.14,2.75,1.37,23.87,11.54,40.48,1.26,2.34-1.45,5.01-3.56,7.57-6.71.77.72,1.55,1.43,2.32,2.15Z"/>
      <path class="cls-1" d="M373.99,168.19s.04-.03.05-.04h-4.43c.8-4.24,2.07-8.2,2.22-12.21.58-15.33.98-30.67,1.1-46.01.19-23.33.32-46.68,0-70.01-.16-11.92-1.36-23.82-2.14-36.48,6.98-1.05,14.7-2.21,22.9-3.44v3.87c0,13.07,0,26.13-.02,39.19v2.11c-.02,27.42-.03,54.84.01,82.26.02,10.89-.03,21.8,1.99,32.67,15.55.02,2.9.08,11.22-.02,5.67-.07,11.35-.37,16.77-2.38,4.27-1.58,8.29-3.49,10.37-8.21,2.45,4.32,4.77,14.43,7.19,18.7h-67.23Z"/>
      <path class="cls-1" d="M579.27,98.94c7.52-15.65,17.38-29.09,20.34-45.69.18-.98,1.49-2.44,2.37-2.51,3.68-.28,7.4-.12,11.96-.12-2.08,2.45-3.89,4.12-5.14,6.14-6.71,10.78-13.33,21.61-19.86,32.5-2.24,3.73-4.27,7.61-6.11,11.56-.61,1.3-.94,3.3-.37,4.48,9.43,19.49,19.02,38.91,28.62,58.32.7,1.41,1.77,2.64,3.19,4.72-2.3,0-3.96,0-5.62,0-6.12,0-12.23-.06-18.35.03-1.92.03-2.98-.48-3.33-2.54-2.04-12.2-7.48-23.17-12.53-34.28-1.69-3.72-3.44-7.42-5.66-12.2-5.58,11.45-10.98,21.96-15.79,32.73-1.89,4.24-2.35,9.1-3.62,13.63-.28.98-1.2,2.47-1.9,2.52-3.78.25-7.59.12-11.75.12,3.9-5.79,7.75-10.82,10.87-16.28,6.62-11.57,12.87-23.34,19.2-35.08.46-.85.68-2.27.29-3.09-9.15-19.5-18.39-38.97-27.67-58.42-.72-1.51-1.79-2.85-2.96-4.67h25.79c2.8,16.81,10.51,31.78,18.03,48.15Z"/>
      <path class="cls-1" d="M247.99,168.08h-27.87c5.93-25.48,3.45-51.14,3.61-76.62.08-12.9-1.28-25.81-2.01-39.17,6.44-1,13.88-2.16,21.79-3.38v37c2.64-6.85,4.63-13.12,7.43-19,3.53-7.42,8.38-13.92,16.41-17.15,4.9-1.97,9.92-2.05,15.48-.36-1.76,5.41-3.46,10.64-5.27,16.19-5.17-2.99-10.32-2.93-15.25-.65-6.29,2.9-9.55,8.58-11.9,14.74-4.18,10.97-5.74,22.54-5.85,34.12-.14,14.32.73,28.66,1.42,42.97.18,3.69,1.28,7.34,2.02,11.31Z"/>
      <path class="cls-1" d="M209.16,168.14h-27.14c5.44-33.61,3.05-67.23,2.27-100.8-.06-2.49-.45-4.97-.78-7.44-.31-2.33-.75-4.64-1.21-7.41,7.59-1.19,15.13-2.38,22.85-3.59.17.97.41,1.67.41,2.38,0,27.33.05,54.65-.1,81.98-.06,11.29.84,22.42,3.69,33.36.11.44.01.93.01,1.53Z"/>
      <path class="cls-1" d="M525.61,168.14c-5.02,0-10.67.14-16.31-.13-.97-.05-2.46-1.69-2.69-2.81-1.42-7.01-2.55-14.07-3.64-20.35-1.91,3.95-3.8,8.96-6.59,13.4-6.58,10.45-16.61,14.34-28.53,13.05-11.55-1.25-19.64-8.61-22.39-20.43-1.44-6.21-2.16-12.67-2.38-19.05-.38-11.08-.07-22.18-.12-33.27-.08-15.72.75-31.48-2.55-47.39,7.78-1.15,15.31-2.27,23.51-3.48,0,1.69,0,3.12,0,4.55.03,28.23-.02,56.46.19,84.7.03,4.47,1.02,8.98,2,13.37,1.39,6.21,4.79,10.95,11.53,11.95,6.97,1.04,12.24-2.17,16.1-7.73,4.65-6.7,6.76-14.45,7.32-22.38,1.69-24.03,1.91-48.09-.5-72.11-.29-2.85-.83-5.68-1.29-8.8,7.76-1.2,15.41-2.38,23.33-3.61,1.9,40.09-2.4,80.14,3,120.51Z"/>
      <path class="cls-1" d="M193.53,42.25c-.22-1.6-.41-3.11-.63-4.61-.35-2.35-.79-4.67-1.57-6.92-1.2-3.5-3.62-5.68-7.12-6.78-2.29-.71-4.63-1.13-6.99-1.47-1.32-.19-2.65-.36-3.99-.6.37-.05.74-.09,1.11-.14,3.26-.44,6.53-.82,9.68-1.81,2.09-.66,3.98-1.63,5.4-3.36,1.25-1.53,1.94-3.33,2.45-5.21.66-2.42,1.02-4.91,1.35-7.39.1-.78.2-1.57.38-2.36.09.74.18,1.49.28,2.23.41,3.04.82,6.09,1.81,9.01.74,2.18,1.88,4.08,3.82,5.41,1.41.97,2.98,1.61,4.63,1.97,2.24.49,4.52.86,6.78,1.26.9.16,1.82.23,2.73.35.08,0,.15.04.32.09-1.24.16-2.37.31-3.5.47-2.51.36-5,.78-7.44,1.51-3.88,1.17-6.35,3.67-7.51,7.54-.7,2.33-1.12,4.71-1.46,7.11-.17,1.17-.29,2.34-.44,3.51,0,.03-.03.07-.09.2Z"/>
    </g>
  </g>
</svg>