<svg width="885" height="684" viewBox="0 0 885 684" fill="none" xmlns="http://www.w3.org/2000/svg">
<path d="M17.9999 19L18.9999 12L12.9999 13M4.9999 8L7.9999 5L13.4999 8L11.1399 11.5M4.23989 14.5C3.95773 15.4231 3.94878 16.4081 4.21411 17.3361C4.47944 18.2641 5.00772 19.0955 5.73517 19.73C6.46262 20.3644 7.35815 20.7746 8.31365 20.9113C9.26916 21.0479 10.2438 20.9051 11.1199 20.5M13.7599 17.5C14.0421 16.5769 14.051 15.5919 13.7857 14.6639C13.5203 13.7359 12.9921 12.9045 12.2646 12.27C11.5372 11.6356 10.6416 11.2254 9.68614 11.0887C8.73063 10.9521 7.756 11.0949 6.8799 11.5M16.9999 4C16.9999 4.55228 16.5522 5 15.9999 5C15.4476 5 14.9999 4.55228 14.9999 4C14.9999 3.44772 15.4476 3 15.9999 3C16.5522 3 16.9999 3.44772 16.9999 4Z" stroke="black" stroke-width="2" stroke-linecap="square"/>
<g clip-path="url(#clip0_6303_3021)">
<path d="M88 12H84L81 21L75 3L72 12H68" stroke="black" stroke-width="2" stroke-linecap="square"/>
</g>
<path d="M149 12H147L145 17L143 7L141 12H139M137 3H151C152.105 3 153 3.89543 153 5V19C153 20.1046 152.105 21 151 21H137C135.895 21 135 20.1046 135 19V5C135 3.89543 135.895 3 137 3Z" stroke="black" stroke-width="2" stroke-linecap="square"/>
<path d="M204 12H202C201.47 12 200.961 11.7893 200.586 11.4142C200.211 11.0391 200 10.5304 200 10V5C200 4.46957 200.211 3.96086 200.586 3.58579C200.961 3.21071 201.47 3 202 3H218C218.53 3 219.039 3.21071 219.414 3.58579C219.789 3.96086 220 4.46957 220 5V10C220 10.5304 219.789 11.0391 219.414 11.4142C219.039 11.7893 218.53 12 218 12H216M204 8H216M216.3 17.7C216.723 18.1424 216.969 18.7246 216.992 19.3364C217.014 19.9481 216.811 20.5468 216.422 21.019C216.032 21.4912 215.483 21.804 214.878 21.8982C214.273 21.9924 213.655 21.8614 213.14 21.53C212.805 21.3106 212.528 21.0148 212.329 20.6672C212.131 20.3195 212.018 19.9298 212 19.53V12M204.6 15.6C204.364 15.8317 204.189 16.1184 204.09 16.4344C203.992 16.7504 203.974 17.0858 204.037 17.4106C204.1 17.7355 204.243 18.0395 204.453 18.2955C204.663 18.5515 204.933 18.7514 205.239 18.8774C205.545 19.0034 205.877 19.0515 206.206 19.0174C206.536 18.9833 206.851 18.8681 207.125 18.682C207.398 18.4959 207.622 18.2449 207.774 17.9513C207.927 17.6578 208.005 17.3309 208 17V12" stroke="black" stroke-width="2" stroke-linecap="square"/>
<path d="M269 17H268C267.47 17 266.961 16.7893 266.586 16.4142C266.211 16.0391 266 15.5304 266 15V5C266 4.46957 266.211 3.96086 266.586 3.58579C266.961 3.21071 267.47 3 268 3H284C284.53 3 285.039 3.21071 285.414 3.58579C285.789 3.96086 286 4.46957 286 5V15C286 15.5304 285.789 16.0391 285.414 16.4142C285.039 16.7893 284.53 17 284 17H283M276 15L281 21H271L276 15Z" stroke="black" stroke-width="2" stroke-linecap="square"/>
<path d="M335 3L332 6M352 6L349 3M336.38 18.7L334 21M347.64 18.67L350 21M339 13L341 15L345 11M350 13C350 17.4183 346.418 21 342 21C337.582 21 334 17.4183 334 13C334 8.58172 337.582 5 342 5C346.418 5 350 8.58172 350 13Z" stroke="black" stroke-width="2" stroke-linecap="square"/>
<path d="M408 9V13L410 15M401 3L398 6M418 6L415 3M402.38 18.7L400 21M413.64 18.67L416 21M416 13C416 17.4183 412.418 21 408 21C403.582 21 400 17.4183 400 13C400 8.58172 403.582 5 408 5C412.418 5 416 8.58172 416 13Z" stroke="black" stroke-width="2" stroke-linecap="square"/>
<g clip-path="url(#clip1_6303_3021)">
<path d="M468.87 6.87C468.008 7.57873 467.303 8.46008 466.802 9.45739C466.3 10.4547 466.013 11.5459 465.959 12.6608C465.905 13.7757 466.084 14.8896 466.486 15.931C466.888 16.9724 467.503 17.9181 468.293 18.7074C469.082 19.4967 470.028 20.1121 471.069 20.514C472.11 20.9159 473.224 21.0954 474.339 21.041C475.454 20.9867 476.545 20.6996 477.543 20.1982C478.54 19.6969 479.421 18.9924 480.13 18.13M481.9 14.25C482.097 13.0036 481.996 11.7283 481.606 10.5282C481.216 9.3282 480.547 8.23749 479.655 7.34521C478.763 6.45293 477.672 5.78438 476.472 5.39417C475.272 5.00396 473.996 4.90316 472.75 5.1M484 6L481 3M468.26 18.67L466 21M464 2L484 22M466 4L464 6" stroke="black" stroke-width="2" stroke-linecap="square"/>
</g>
<path d="M533 3L530 6M550 6L547 3M534.38 18.7L532 21M545.64 18.67L548 21M537 13H543M548 13C548 17.4183 544.418 21 540 21C535.582 21 532 17.4183 532 13C532 8.58172 535.582 5 540 5C544.418 5 548 8.58172 548 13Z" stroke="black" stroke-width="2" stroke-linecap="square"/>
<path d="M599 3L596 6M616 6L613 3M600.38 18.7L598 21M611.64 18.67L614 21M606 10V16M603 13H609M614 13C614 17.4183 610.418 21 606 21C601.582 21 598 17.4183 598 13C598 8.58172 601.582 5 606 5C610.418 5 614 8.58172 614 13Z" stroke="black" stroke-width="2" stroke-linecap="square"/>
<path d="M671 3V11L674 8L677 11V3M665 3H679C680.105 3 681 3.89543 681 5V19C681 20.1046 680.105 21 679 21H665C663.895 21 663 20.1046 663 19V5C663 3.89543 663.895 3 665 3Z" stroke="black" stroke-width="2" stroke-linecap="square"/>
<path d="M738 8V12M738 16H738.01M748 12C748 17.5228 743.523 22 738 22C732.477 22 728 17.5228 728 12C728 6.47715 732.477 2 738 2C743.523 2 748 6.47715 748 12Z" stroke="black" stroke-width="2" stroke-linecap="square"/>
<path d="M804 8V12M804 16H804.01M799.86 2H808.14L814 7.86V16.14L808.14 22H799.86L794 16.14V7.86L799.86 2Z" stroke="black" stroke-width="2" stroke-linecap="square"/>
<path d="M870 8.99998V13M870 17H870.01M879.73 18L871.73 3.99998C871.555 3.69218 871.303 3.43617 870.997 3.25805C870.691 3.07993 870.344 2.98608 869.99 2.98608C869.636 2.98608 869.289 3.07993 868.983 3.25805C868.677 3.43617 868.424 3.69218 868.25 3.99998L860.25 18C860.074 18.3053 859.981 18.6519 859.982 19.0045C859.983 19.3571 860.077 19.7032 860.254 20.0078C860.432 20.3124 860.687 20.5646 860.994 20.7388C861.3 20.9131 861.647 21.0032 862 21H878C878.351 20.9996 878.695 20.9069 878.999 20.7313C879.303 20.5556 879.555 20.3031 879.73 19.9991C879.906 19.6951 879.998 19.3504 879.998 18.9995C879.998 18.6486 879.905 18.3039 879.73 18Z" stroke="black" stroke-width="2" stroke-linecap="square"/>
<path d="M21 72H3M17 78H7M19 84H5" stroke="black" stroke-width="2" stroke-linecap="square"/>
<path d="M68 78H88M76 82V86C76 86.5304 75.7893 87.0391 75.4142 87.4142C75.0391 87.7893 74.5304 88 74 88H72C71.4696 88 70.9609 87.7893 70.5858 87.4142C70.2107 87.0391 70 86.5304 70 86V82M76 74V70C76 69.4696 75.7893 68.9609 75.4142 68.5858C75.0391 68.2107 74.5304 68 74 68H72C71.4696 68 70.9609 68.2107 70.5858 68.5858C70.2107 68.9609 70 69.4696 70 70V74M86 82V83C86 83.5304 85.7893 84.0391 85.4142 84.4142C85.0391 84.7893 84.5304 85 84 85H82C81.4696 85 80.9609 84.7893 80.5858 84.4142C80.2107 84.0391 80 83.5304 80 83V82M80 74V73C80 71.9 80.9 71 82 71H84C84.5304 71 85.0391 71.2107 85.4142 71.5858C85.7893 71.9609 86 72.4696 86 73V74" stroke="black" stroke-width="2" stroke-linecap="square"/>
<path d="M144 68V88M140 76H136C135.47 76 134.961 75.7893 134.586 75.4142C134.211 75.0391 134 74.5304 134 74V72C134 70.9 134.9 70 136 70H140M148 76H152C152.53 76 153.039 75.7893 153.414 75.4142C153.789 75.0391 154 74.5304 154 74V72C154 71.4696 153.789 70.9609 153.414 70.5858C153.039 70.2107 152.53 70 152 70H148M140 86H139C138.47 86 137.961 85.7893 137.586 85.4142C137.211 85.0391 137 84.5304 137 84V82C137 80.9 137.9 80 139 80H140M148 80H149C149.53 80 150.039 80.2107 150.414 80.5858C150.789 80.9609 151 81.4696 151 82V84C151 84.5304 150.789 85.0391 150.414 85.4142C150.039 85.7893 149.53 86 149 86H148" stroke="black" stroke-width="2" stroke-linecap="square"/>
<path d="M220 88H200M204 68H206C207.105 68 208 68.8954 208 70V82C208 83.1046 207.105 84 206 84H204C202.895 84 202 83.1046 202 82V70C202 68.8954 202.895 68 204 68ZM214 75H216C217.105 75 218 75.8954 218 77V82C218 83.1046 217.105 84 216 84H214C212.895 84 212 83.1046 212 82V77C212 75.8954 212.895 75 214 75Z" stroke="black" stroke-width="2" stroke-linecap="square"/>
<path d="M286 88V68M268 70H280C281.105 70 282 70.8954 282 72V74C282 75.1046 281.105 76 280 76H268C266.895 76 266 75.1046 266 74V72C266 70.8954 266.895 70 268 70ZM275 80H280C281.105 80 282 80.8954 282 82V84C282 85.1046 281.105 86 280 86H275C273.895 86 273 85.1046 273 84V82C273 80.8954 273.895 80 275 80Z" stroke="black" stroke-width="2" stroke-linecap="square"/>
<path d="M347 88V83M347 73V68M337 88V85M337 71V68M336 71H338C339.105 71 340 71.8954 340 73V83C340 84.1046 339.105 85 338 85H336C334.895 85 334 84.1046 334 83V73C334 71.8954 334.895 71 336 71ZM346 73H348C349.105 73 350 73.8954 350 75V81C350 82.1046 349.105 83 348 83H346C344.895 83 344 82.1046 344 81V75C344 73.8954 344.895 73 346 73Z" stroke="black" stroke-width="2" stroke-linecap="square"/>
<path d="M406 68V88M416 68V88M402 71H404C405.105 71 406 71.8954 406 73V83C406 84.1046 405.105 85 404 85H402C400.895 85 400 84.1046 400 83V73C400 71.8954 400.895 71 402 71ZM412 73H414C415.105 73 416 73.8954 416 75V81C416 82.1046 415.105 83 414 83H412C410.895 83 410 82.1046 410 81V75C410 73.8954 410.895 73 412 73Z" stroke="black" stroke-width="2" stroke-linecap="square"/>
<path d="M466 68V88M476 68V88M468 71H470C471.105 71 472 71.8954 472 73V83C472 84.1046 471.105 85 470 85H468C466.895 85 466 84.1046 466 83V73C466 71.8954 466.895 71 468 71ZM478 73H480C481.105 73 482 73.8954 482 75V81C482 82.1046 481.105 83 480 83H478C476.895 83 476 82.1046 476 81V75C476 73.8954 476.895 73 478 73Z" stroke="black" stroke-width="2" stroke-linecap="square"/>
<path d="M540 68V88M532 71H534C535.105 71 536 71.8954 536 73V83C536 84.1046 535.105 85 534 85H532C530.895 85 530 84.1046 530 83V73C530 71.8954 530.895 71 532 71ZM546 73H548C549.105 73 550 73.8954 550 75V81C550 82.1046 549.105 83 548 83H546C544.895 83 544 82.1046 544 81V75C544 73.8954 544.895 73 546 73Z" stroke="black" stroke-width="2" stroke-linecap="square"/>
<path d="M616 68V88M598 71H600C601.105 71 602 71.8954 602 73V83C602 84.1046 601.105 85 600 85H598C596.895 85 596 84.1046 596 83V73C596 71.8954 596.895 71 598 71ZM608 73H610C611.105 73 612 73.8954 612 75V81C612 82.1046 611.105 83 610 83H608C606.895 83 606 82.1046 606 81V75C606 73.8954 606.895 73 608 73Z" stroke="black" stroke-width="2" stroke-linecap="square"/>
<path d="M662 68V88M668 71H670C671.105 71 672 71.8954 672 73V83C672 84.1046 671.105 85 670 85H668C666.895 85 666 84.1046 666 83V73C666 71.8954 666.895 71 668 71ZM678 73H680C681.105 73 682 73.8954 682 75V81C682 82.1046 681.105 83 680 83H678C676.895 83 676 82.1046 676 81V75C676 73.8954 676.895 73 678 73Z" stroke="black" stroke-width="2" stroke-linecap="square"/>
<path d="M730 88V68M746 88V68M737 73H739C740.105 73 741 73.8954 741 75V81C741 82.1046 740.105 83 739 83H737C735.895 83 735 82.1046 735 81V75C735 73.8954 735.895 73 737 73Z" stroke="black" stroke-width="2" stroke-linecap="square"/>
<path d="M795 68V88M813 68V88M797 71H799C800.105 71 801 71.8954 801 73V83C801 84.1046 800.105 85 799 85H797C795.895 85 795 84.1046 795 83V73C795 71.8954 795.895 71 797 71ZM809 73H811C812.105 73 813 73.8954 813 75V81C813 82.1046 812.105 83 811 83H809C807.895 83 807 82.1046 807 81V75C807 73.8954 807.895 73 809 73Z" stroke="black" stroke-width="2" stroke-linecap="square"/>
<path d="M861 72H879M861 78H879M861 84H879" stroke="black" stroke-width="2" stroke-linecap="square"/>
<path d="M21 138H3M15 144H3M17 150H3" stroke="black" stroke-width="2" stroke-linecap="square"/>
<path d="M87 138H69M87 144H75M87 150H73" stroke="black" stroke-width="2" stroke-linecap="square"/>
<path d="M154 134H134M138 138H140C141.105 138 142 138.895 142 140V152C142 153.105 141.105 154 140 154H138C136.895 154 136 153.105 136 152V140C136 138.895 136.895 138 138 138ZM148 138H150C151.105 138 152 138.895 152 140V145C152 146.105 151.105 147 150 147H148C146.895 147 146 146.105 146 145V140C146 138.895 146.895 138 148 138Z" stroke="black" stroke-width="2" stroke-linecap="square"/>
<path d="M200 134V154M206 146H211C212.105 146 213 146.895 213 148V150C213 151.105 212.105 152 211 152H206C204.895 152 204 151.105 204 150V148C204 146.895 204.895 146 206 146ZM206 136H218C219.105 136 220 136.895 220 138V140C220 141.105 219.105 142 218 142H206C204.895 142 204 141.105 204 140V138C204 136.895 204.895 136 206 136Z" stroke="black" stroke-width="2" stroke-linecap="square"/>
<path d="M286 139H281M271 139H265M286 149H283M269 149H266M271 146H281C282.105 146 283 146.895 283 148V150C283 151.105 282.105 152 281 152H271C269.895 152 269 151.105 269 150V148C269 146.895 269.895 146 271 146ZM273 136H279C280.105 136 281 136.895 281 138V140C281 141.105 280.105 142 279 142H273C271.895 142 271 141.105 271 140V138C271 136.895 271.895 136 273 136Z" stroke="black" stroke-width="2" stroke-linecap="square"/>
<path d="M332 152H352M332 142H352M337 146H347C348.105 146 349 146.895 349 148V150C349 151.105 348.105 152 347 152H337C335.895 152 335 151.105 335 150V148C335 146.895 335.895 146 337 146ZM339 136H345C346.105 136 347 136.895 347 138V140C347 141.105 346.105 142 345 142H339C337.895 142 337 141.105 337 140V138C337 136.895 337.895 136 339 136Z" stroke="black" stroke-width="2" stroke-linecap="square"/>
<path d="M398 146H418M398 136H418M403 146H413C414.105 146 415 146.895 415 148V150C415 151.105 414.105 152 413 152H403C401.895 152 401 151.105 401 150V148C401 146.895 401.895 146 403 146ZM405 136H411C412.105 136 413 136.895 413 138V140C413 141.105 412.105 142 411 142H405C403.895 142 403 141.105 403 140V138C403 136.895 403.895 136 405 136Z" stroke="black" stroke-width="2" stroke-linecap="square"/>
<path d="M464 144H484M469 148H479C480.105 148 481 148.895 481 150V152C481 153.105 480.105 154 479 154H469C467.895 154 467 153.105 467 152V150C467 148.895 467.895 148 469 148ZM471 134H477C478.105 134 479 134.895 479 136V138C479 139.105 478.105 140 477 140H471C469.895 140 469 139.105 469 138V136C469 134.895 469.895 134 471 134Z" stroke="black" stroke-width="2" stroke-linecap="square"/>
<path d="M530 154H550M535 144H545C546.105 144 547 144.895 547 146V148C547 149.105 546.105 150 545 150H535C533.895 150 533 149.105 533 148V146C533 144.895 533.895 144 535 144ZM537 134H543C544.105 134 545 134.895 545 136V138C545 139.105 544.105 140 543 140H537C535.895 140 535 139.105 535 138V136C535 134.895 535.895 134 537 134Z" stroke="black" stroke-width="2" stroke-linecap="square"/>
<path d="M596 134H616M601 148H611C612.105 148 613 148.895 613 150V152C613 153.105 612.105 154 611 154H601C599.895 154 599 153.105 599 152V150C599 148.895 599.895 148 601 148ZM603 138H609C610.105 138 611 138.895 611 140V142C611 143.105 610.105 144 609 144H603C601.895 144 601 143.105 601 142V140C601 138.895 601.895 138 603 138Z" stroke="black" stroke-width="2" stroke-linecap="square"/>
<path d="M682 152H662M682 136H662M669 141H675C676.105 141 677 141.895 677 143V145C677 146.105 676.105 147 675 147H669C667.895 147 667 146.105 667 145V143C667 141.895 667.895 141 669 141Z" stroke="black" stroke-width="2" stroke-linecap="square"/>
<path d="M728 153H748M728 135H748M733 147H743C744.105 147 745 147.895 745 149V151C745 152.105 744.105 153 743 153H733C731.895 153 731 152.105 731 151V149C731 147.895 731.895 147 733 147ZM735 135H741C742.105 135 743 135.895 743 137V139C743 140.105 742.105 141 741 141H735C733.895 141 733 140.105 733 139V137C733 135.895 733.895 135 735 135Z" stroke="black" stroke-width="2" stroke-linecap="square"/>
<path d="M808 148C808 148 806.5 146 804 146C801.5 146 800 148 800 148M799.5 140L802 141M806 141L808.5 140M814 144C814 149.523 809.523 154 804 154C798.477 154 794 149.523 794 144C794 138.477 798.477 134 804 134C809.523 134 814 138.477 814 144Z" stroke="black" stroke-width="2" stroke-linecap="square"/>
<path d="M866 147H874M866 141H868M872 141H874M880 144C880 149.523 875.523 154 870 154C864.477 154 860 149.523 860 144C860 138.477 864.477 134 870 134C875.523 134 880 138.477 880 144Z" stroke="black" stroke-width="2" stroke-linecap="square"/>
<path d="M17.5 210C17.5 214.4 13.9 218 9.5 218C8.30653 218 7.16193 217.526 6.31802 216.682C5.47411 215.838 5 214.693 5 213.5C5 207.5 13 209.5 13 205C13 204.204 12.6839 203.441 12.1213 202.879C11.5587 202.316 10.7956 202 10 202C9.20435 202 8.44129 202.316 7.87868 202.879C7.31607 203.441 7 204.204 7 205C7 208 9.5 213.5 19 218M16 210H19" stroke="black" stroke-width="2" stroke-linecap="square"/>
<path d="M68 210L73 200M73 210L78 200M78 210L83 200M83 210L88 200M70.5 205H85.5M78 214V220" stroke="black" stroke-width="2" stroke-linecap="square"/>
<path d="M146.31 206L152.05 215.94M141.69 206H153.17M139.38 210L145.12 200.06M141.69 214L135.95 204.06M146.31 214H134.83M148.62 210L142.88 219.94M154 210C154 215.523 149.523 220 144 220C138.477 220 134 215.523 134 210C134 204.477 138.477 200 144 200C149.523 200 154 204.477 154 210Z" stroke="black" stroke-width="2" stroke-linecap="square"/>
<path d="M208 202V206M200 206H220M204 202V206M202 202H218C219.105 202 220 202.895 220 204V216C220 217.105 219.105 218 218 218H202C200.895 218 200 217.105 200 216V204C200 202.895 200.895 202 202 202Z" stroke="black" stroke-width="2" stroke-linecap="square"/>
<path d="M276 205C277 204.44 278.78 203 281 203C282.295 202.976 283.548 203.465 284.485 204.36C285.421 205.255 285.966 206.485 286 207.78C286 212 283 220 280 220C278.75 220 277.5 218.94 276 218.94C274.5 218.94 273.25 220 272 220C269 220 266 212 266 207.78C266.031 206.484 266.575 205.253 267.513 204.357C268.45 203.461 269.704 202.973 271 203C273.22 203 275 204.44 276 205ZM276 205C276 202 275 200.5 274 200" stroke="black" stroke-width="2" stroke-linecap="square"/>
<path d="M334 206V217C334 217.53 334.211 218.039 334.586 218.414C334.961 218.789 335.47 219 336 219H348C348.53 219 349.039 218.789 349.414 218.414C349.789 218.039 350 217.53 350 217V206M340 210H344M333 201H351C351.552 201 352 201.448 352 202V205C352 205.552 351.552 206 351 206H333C332.448 206 332 205.552 332 205V202C332 201.448 332.448 201 333 201Z" stroke="black" stroke-width="2" stroke-linecap="square"/>
<path d="M400 206V217C400 217.53 400.211 218.039 400.586 218.414C400.961 218.789 401.47 219 402 219H404M416 206V217C416 217.53 415.789 218.039 415.414 218.414C415.039 218.789 414.53 219 414 219H412M405 213L408 210M408 210L411 213M408 210V219M399 201H417C417.552 201 418 201.448 418 202V205C418 205.552 417.552 206 417 206H399C398.448 206 398 205.552 398 205V202C398 201.448 398.448 201 399 201Z" stroke="black" stroke-width="2" stroke-linecap="square"/>
<path d="M466 206V217C466 217.53 466.211 218.039 466.586 218.414C466.961 218.789 467.47 219 468 219H480C480.53 219 481.039 218.789 481.414 218.414C481.789 218.039 482 217.53 482 217V206M471.5 215L476.5 210M471.5 210L476.5 215M465 201H483C483.552 201 484 201.448 484 202V205C484 205.552 483.552 206 483 206H465C464.448 206 464 205.552 464 205V202C464 201.448 464.448 201 465 201Z" stroke="black" stroke-width="2" stroke-linecap="square"/>
<path d="M531 201V219H549M535 210V215H547V206L542 211L538 207L535 210Z" stroke="black" stroke-width="2" stroke-linecap="square"/>
<path d="M613 207V204C613 203.47 612.789 202.961 612.414 202.586C612.039 202.211 611.53 202 611 202H601C600.47 202 599.961 202.211 599.586 202.586C599.211 202.961 599 203.47 599 204V207M613 207C613.53 207 614.039 207.211 614.414 207.586C614.789 207.961 615 208.47 615 209V214C615 214.53 614.789 215.039 614.414 215.414C614.039 215.789 613.53 216 613 216M613 207C612.47 207 611.961 207.211 611.586 207.586C611.211 207.961 611 208.47 611 209V211H601V209C601 208.47 600.789 207.961 600.414 207.586C600.039 207.211 599.53 207 599 207M599 207C598.47 207 597.961 207.211 597.586 207.586C597.211 207.961 597 208.47 597 209V214C597 214.53 597.211 215.039 597.586 215.414C597.961 215.789 598.47 216 599 216M599 216H613M599 216V218M613 216V218" stroke="black" stroke-width="2" stroke-linecap="square"/>
<path d="M675 204V210H679L672 217L665 210H669V204H675Z" stroke="black" stroke-width="2" stroke-linecap="square"/>
<path d="M741 203H735M741 207V210H745L738 217L731 210H735V207H741Z" stroke="black" stroke-width="2" stroke-linecap="square"/>
<path d="M810 213H804V217L797 210L804 203V207H810V213Z" stroke="black" stroke-width="2" stroke-linecap="square"/>
<path d="M877 213V207M873 213H870V217L863 210L870 203V207H873V213Z" stroke="black" stroke-width="2" stroke-linecap="square"/>
<path d="M6 273H12V269L19 276L12 283V279H6V273Z" stroke="black" stroke-width="2" stroke-linecap="square"/>
<path d="M71 273V279M75 273H78V269L85 276L78 283V279H75V273Z" stroke="black" stroke-width="2" stroke-linecap="square"/>
<path d="M141 282V276H137L144 269L151 276H147V282H141Z" stroke="black" stroke-width="2" stroke-linecap="square"/>
<path d="M207 283H213M207 279V276H203L210 269L217 276H213V279H207Z" stroke="black" stroke-width="2" stroke-linecap="square"/>
<path d="M276 269V283M276 283L283 276M276 283L269 276" stroke="black" stroke-width="2" stroke-linecap="square"/>
<path d="M333 280L337 284M337 284L341 280M337 284V268M347 284V278H345M345 284H349M347 268C348.105 268 349 268.895 349 270V272C349 273.105 348.105 274 347 274C345.895 274 345 273.105 345 272V270C345 268.895 345.895 268 347 268Z" stroke="black" stroke-width="2" stroke-linecap="square"/>
<path d="M399 280L403 284M403 284L407 280M403 284V268M413 274V268H411M411 274H415M413 278C414.105 278 415 278.895 415 280V282C415 283.105 414.105 284 413 284C411.895 284 411 283.105 411 282V280C411 278.895 411.895 278 413 278Z" stroke="black" stroke-width="2" stroke-linecap="square"/>
<path d="M465 280L469 284M469 284L473 280M469 284V268M482 272H477M477 274V270.5C477 269.837 477.263 269.201 477.732 268.732C478.201 268.263 478.837 268 479.5 268C480.163 268 480.799 268.263 481.268 268.732C481.737 269.201 482 269.837 482 270.5V274M477 278H482L477 284H482" stroke="black" stroke-width="2" stroke-linecap="square"/>
<path d="M540 272V280M540 280L536 276M540 280L544 276M550 276C550 281.523 545.523 286 540 286C534.477 286 530 281.523 530 276C530 270.477 534.477 266 540 266C545.523 266 550 270.477 550 276Z" stroke="black" stroke-width="2" stroke-linecap="square"/>
<path d="M613 267H599M606 285V271M606 285L600 279M606 285L612 279" stroke="black" stroke-width="2" stroke-linecap="square"/>
<path d="M677 271L667 281M667 281H677M667 281V271" stroke="black" stroke-width="2" stroke-linecap="square"/>
<path d="M728 276C728 274.022 728.586 272.089 729.685 270.444C730.784 268.8 732.346 267.518 734.173 266.761C736 266.004 738.011 265.806 739.951 266.192C741.891 266.578 743.673 267.53 745.071 268.929C746.47 270.327 747.422 272.109 747.808 274.049C748.194 275.989 747.996 278 747.239 279.827C746.482 281.654 745.2 283.216 743.556 284.315C741.911 285.414 739.978 286 738 286M728 286L738 276M728 286H734M728 286V280" stroke="black" stroke-width="2" stroke-linecap="square"/>
<path d="M808 272L800 280M800 280H808M800 280V272M797 267H811C812.105 267 813 267.895 813 269V283C813 284.105 812.105 285 811 285H797C795.895 285 795 284.105 795 283V269C795 267.895 795.895 267 797 267Z" stroke="black" stroke-width="2" stroke-linecap="square"/>
<path d="M865 271L875 281M875 281V271M875 281H865" stroke="black" stroke-width="2" stroke-linecap="square"/>
<path d="M12 352C10.0222 352 8.08879 351.414 6.4443 350.315C4.79981 349.216 3.51809 347.654 2.76121 345.827C2.00433 344 1.8063 341.989 2.19215 340.049C2.578 338.109 3.53041 336.327 4.92894 334.929C6.32746 333.53 8.10929 332.578 10.0491 332.192C11.9889 331.806 13.9996 332.004 15.8268 332.761C17.6541 333.518 19.2159 334.8 20.3147 336.444C21.4135 338.089 22 340.022 22 342M22 352L12 342M22 352V346M22 352H16" stroke="black" stroke-width="2" stroke-linecap="square"/>
<path d="M74 338L82 346M82 346V338M82 346H74M71 333H85C86.1046 333 87 333.895 87 335V349C87 350.105 86.1046 351 85 351H71C69.8954 351 69 350.105 69 349V335C69 333.895 69.8954 333 71 333Z" stroke="black" stroke-width="2" stroke-linecap="square"/>
<path d="M144 338V346M144 346L140 342M144 346L148 342M137 333H151C152.105 333 153 333.895 153 335V349C153 350.105 152.105 351 151 351H137C135.895 351 135 350.105 135 349V335C135 333.895 135.895 333 137 333Z" stroke="black" stroke-width="2" stroke-linecap="square"/>
<path d="M210 332V346M210 346L217 339M210 346L203 339M211 351C211 351.552 210.552 352 210 352C209.448 352 209 351.552 209 351C209 350.448 209.448 350 210 350C210.552 350 211 350.448 211 351Z" stroke="black" stroke-width="2" stroke-linecap="square"/>
<path d="M276 347V333M276 347L270 341M276 347L282 341M283 351H269" stroke="black" stroke-width="2" stroke-linecap="square"/>
<path d="M333 346L337 350M337 350L341 346M337 350V334M341 334H351M341 338H348M341 342H345" stroke="black" stroke-width="2" stroke-linecap="square"/>
<path d="M399 346L403 350M403 350L407 346M403 350V334M411 334H416L411 340H416M411 350V346.5C411 345.837 411.263 345.201 411.732 344.732C412.201 344.263 412.837 344 413.5 344C414.163 344 414.799 344.263 415.268 344.732C415.737 345.201 416 345.837 416 346.5V350M416 348H411" stroke="black" stroke-width="2" stroke-linecap="square"/>
<path d="M474 349L467 342M467 342L474 335M467 342H481" stroke="black" stroke-width="2" stroke-linecap="square"/>
<path d="M544 342H536M536 342L540 338M536 342L540 346M550 342C550 347.523 545.523 352 540 352C534.477 352 530 347.523 530 342C530 336.477 534.477 332 540 332C545.523 332 550 336.477 550 342Z" stroke="black" stroke-width="2" stroke-linecap="square"/>
<path d="M603 336L597 342M597 342L603 348M597 342H611M615 349V335" stroke="black" stroke-width="2" stroke-linecap="square"/>
<path d="M668 333L664 337M664 337L668 341M664 337H680M676 351L680 347M680 347L676 343M680 347H664" stroke="black" stroke-width="2" stroke-linecap="square"/>
<path d="M738 338L734 342M734 342L738 346M734 342H742M731 333H745C746.105 333 747 333.895 747 335V349C747 350.105 746.105 351 745 351H731C729.895 351 729 350.105 729 349V335C729 333.895 729.895 333 731 333Z" stroke="black" stroke-width="2" stroke-linecap="square"/>
<path d="M795 349V335M805 336L799 342M799 342L805 348M799 342H813" stroke="black" stroke-width="2" stroke-linecap="square"/>
<path d="M863 342H877M877 342L870 335M877 342L870 349" stroke="black" stroke-width="2" stroke-linecap="square"/>
<path d="M8 408H16M16 408L12 412M16 408L12 404M22 408C22 413.523 17.5228 418 12 418C6.47715 418 2 413.523 2 408C2 402.477 6.47715 398 12 398C17.5228 398 22 402.477 22 408Z" stroke="black" stroke-width="2" stroke-linecap="square"/>
<path d="M69 401V415M87 408H73M87 408L81 414M87 408L81 402" stroke="black" stroke-width="2" stroke-linecap="square"/>
<path d="M148 399L152 403M152 403L148 407M152 403H136M140 417L136 413M136 413L140 409M136 413H152" stroke="black" stroke-width="2" stroke-linecap="square"/>
<path d="M206 408H214M214 408L210 412M214 408L210 404M203 399H217C218.105 399 219 399.895 219 401V415C219 416.105 218.105 417 217 417H203C201.895 417 201 416.105 201 415V401C201 399.895 201.895 399 203 399Z" stroke="black" stroke-width="2" stroke-linecap="square"/>
<path d="M281 408H267M281 408L275 414M281 408L275 402M285 401V415" stroke="black" stroke-width="2" stroke-linecap="square"/>
<path d="M335 408L342 401M342 401L349 408M342 401V415" stroke="black" stroke-width="2" stroke-linecap="square"/>
<path d="M399 404L403 400M403 400L407 404M403 400V416M413 416V410H411M411 416H415M413 400C414.105 400 415 400.895 415 402V404C415 405.105 414.105 406 413 406C411.895 406 411 405.105 411 404V402C411 400.895 411.895 400 413 400Z" stroke="black" stroke-width="2" stroke-linecap="square"/>
<path d="M465 404L469 400M469 400L473 404M469 400V416M479 406V400H477M477 406H481M479 410C480.105 410 481 410.895 481 412V414C481 415.105 480.105 416 479 416C477.895 416 477 415.105 477 414V412C477 410.895 477.895 410 479 410Z" stroke="black" stroke-width="2" stroke-linecap="square"/>
<path d="M531 404L535 400M535 400L539 404M535 400V416M548 404H543M543 406V402.5C543 401.837 543.263 401.201 543.732 400.732C544.201 400.263 544.837 400 545.5 400C546.163 400 546.799 400.263 547.268 400.732C547.737 401.201 548 401.837 548 402.5V406M543 410H548L543 416H548" stroke="black" stroke-width="2" stroke-linecap="square"/>
<path d="M610 408L606 404M606 404L602 408M606 404V412M616 408C616 413.523 611.523 418 606 418C600.477 418 596 413.523 596 408C596 402.477 600.477 398 606 398C611.523 398 616 402.477 616 408Z" stroke="black" stroke-width="2" stroke-linecap="square"/>
<path d="M681 412L677 416M677 416L673 412M677 416V400M663 404L667 400M667 400L671 404M667 400V416" stroke="black" stroke-width="2" stroke-linecap="square"/>
<path d="M731 405L738 398M738 398L745 405M738 398V412M739 417C739 417.552 738.552 418 738 418C737.448 418 737 417.552 737 417C737 416.448 737.448 416 738 416C738.552 416 739 416.448 739 417Z" stroke="black" stroke-width="2" stroke-linecap="square"/>
<path d="M810 405L804 399M804 399L798 405M804 399V413M797 417H811" stroke="black" stroke-width="2" stroke-linecap="square"/>
<path d="M865 413V403M865 403H875M865 403L875 413" stroke="black" stroke-width="2" stroke-linecap="square"/>
<path d="M2 470V464M2 464H8M2 464L12 474M12 464C13.9778 464 15.9112 464.586 17.5557 465.685C19.2002 466.784 20.4819 468.346 21.2388 470.173C21.9957 472 22.1937 474.011 21.8079 475.951C21.422 477.891 20.4696 479.673 19.0711 481.071C17.6725 482.47 15.8907 483.422 13.9509 483.808C12.0111 484.194 10.0004 483.996 8.17317 483.239C6.3459 482.482 4.78412 481.2 3.6853 479.556C2.58649 477.911 2 475.978 2 474" stroke="black" stroke-width="2" stroke-linecap="square"/>
<path d="M74 478V470M74 470H82M74 470L82 478M71 465H85C86.1046 465 87 465.895 87 467V481C87 482.105 86.1046 483 85 483H71C69.8954 483 69 482.105 69 481V467C69 465.895 69.8954 465 71 465Z" stroke="black" stroke-width="2" stroke-linecap="square"/>
<path d="M135 470L139 466M139 466L143 470M139 466V482M143 474H147M143 478H150M143 482H153" stroke="black" stroke-width="2" stroke-linecap="square"/>
<path d="M205 469H215M215 469V479M215 469L205 479" stroke="black" stroke-width="2" stroke-linecap="square"/>
<path d="M286 474C286 475.978 285.414 477.911 284.315 479.556C283.216 481.2 281.654 482.482 279.827 483.239C278 483.996 275.989 484.194 274.049 483.808C272.109 483.422 270.327 482.47 268.929 481.071C267.53 479.673 266.578 477.891 266.192 475.951C265.806 474.011 266.004 472 266.761 470.173C267.518 468.346 268.8 466.784 270.444 465.685C272.089 464.586 274.022 464 276 464M286 464L276 474M286 464H280M286 464V470" stroke="black" stroke-width="2" stroke-linecap="square"/>
<path d="M338 470H346M346 470V478M346 470L338 478M335 465H349C350.105 465 351 465.895 351 467V481C351 482.105 350.105 483 349 483H335C333.895 483 333 482.105 333 481V467C333 465.895 333.895 465 335 465Z" stroke="black" stroke-width="2" stroke-linecap="square"/>
<path d="M412 474L408 470M408 470L404 474M408 470V478M401 465H415C416.105 465 417 465.895 417 467V481C417 482.105 416.105 483 415 483H401C399.895 483 399 482.105 399 481V467C399 465.895 399.895 465 401 465Z" stroke="black" stroke-width="2" stroke-linecap="square"/>
<path d="M467 465H481M480 475L474 469M474 469L468 475M474 469V483" stroke="black" stroke-width="2" stroke-linecap="square"/>
<path d="M531 470L535 466M535 466L539 470M535 466V482M539 474H549M539 478H546M539 482H543" stroke="black" stroke-width="2" stroke-linecap="square"/>
<path d="M597 470L601 466M601 466L605 470M601 466V482M609 466H614L609 472H614M609 482V478.5C609 477.837 609.263 477.201 609.732 476.732C610.201 476.263 610.837 476 611.5 476C612.163 476 612.799 476.263 613.268 476.732C613.737 477.201 614 477.837 614 478.5V482M614 480H609" stroke="black" stroke-width="2" stroke-linecap="square"/>
<path d="M664 468L667 465M667 465L670 468M667 465V479M674 468L677 465M677 465L680 468M677 465V479M664 483H680" stroke="black" stroke-width="2" stroke-linecap="square"/>
<path d="M738 468V480M743.196 471L732.804 477M732.804 471L743.196 477" stroke="black" stroke-width="2" stroke-linecap="square"/>
<path d="M808 470V475C808 475.796 808.316 476.559 808.879 477.121C809.441 477.684 810.204 478 811 478C811.796 478 812.559 477.684 813.121 477.121C813.684 476.559 814 475.796 814 475V474C814 471.747 813.239 469.561 811.841 467.794C810.443 466.028 808.49 464.785 806.298 464.268C804.105 463.75 801.802 463.988 799.762 464.943C797.721 465.897 796.063 467.513 795.056 469.528C794.048 471.543 793.751 473.839 794.211 476.044C794.672 478.249 795.863 480.234 797.593 481.678C799.322 483.121 801.488 483.938 803.74 483.997C805.992 484.055 808.198 483.352 810 482M808 474C808 476.209 806.209 478 804 478C801.791 478 800 476.209 800 474C800 471.791 801.791 470 804 470C806.209 470 808 471.791 808 474Z" stroke="black" stroke-width="2" stroke-linecap="square"/>
<path d="M870 475C870.552 475 871 474.552 871 474C871 473.448 870.552 473 870 473C869.448 473 869 473.448 869 474C869 474.552 869.448 475 870 475Z" stroke="black" stroke-width="2" stroke-linecap="square"/>
<path d="M878.2 482.2C880.24 480.17 878.22 474.84 873.7 470.3C869.16 465.78 863.83 463.76 861.8 465.8C859.76 467.83 861.78 473.16 866.3 477.7C870.84 482.22 876.17 484.24 878.2 482.2Z" stroke="black" stroke-width="2" stroke-linecap="square"/>
<path d="M873.7 477.7C878.22 473.16 880.24 467.83 878.2 465.8C876.17 463.76 870.84 465.78 866.3 470.3C861.78 474.84 859.76 480.17 861.8 482.2C863.83 484.24 869.16 482.22 873.7 477.7Z" stroke="black" stroke-width="2" stroke-linecap="square"/>
<path d="M15.477 540.89L17 550L12 547L7 550L8.523 540.89M18 536C18 539.314 15.3137 542 12 542C8.68629 542 6 539.314 6 536C6 532.686 8.68629 530 12 530C15.3137 530 18 532.686 18 536Z" stroke="black" stroke-width="2" stroke-linecap="square"/>
<path d="M70 532V548M70 548H86M70 548L77 541" stroke="black" stroke-width="2" stroke-linecap="square"/>
<path d="M141 534V532C141 531.47 141.211 530.961 141.586 530.586C141.961 530.211 142.47 530 143 530H145C145.53 530 146.039 530.211 146.414 530.586C146.789 530.961 147 531.47 147 532V534M140 549V544C140 543.47 140.211 542.961 140.586 542.586C140.961 542.211 141.47 542 142 542H146C146.53 542 147.039 542.211 147.414 542.586C147.789 542.961 148 543.47 148 544V549M140 538H148M140 546H148M136 548V538C136 536.939 136.421 535.922 137.172 535.172C137.922 534.421 138.939 534 140 534H148C149.061 534 150.078 534.421 150.828 535.172C151.579 535.922 152 536.939 152 538V548C152 548.53 151.789 549.039 151.414 549.414C151.039 549.789 150.53 550 150 550H138C137.47 550 136.961 549.789 136.586 549.414C136.211 549.039 136 548.53 136 548Z" stroke="black" stroke-width="2" stroke-linecap="square"/>
<path d="M201.85 536.62C201.704 535.963 201.727 535.279 201.915 534.632C202.104 533.986 202.453 533.398 202.93 532.922C203.406 532.446 203.996 532.098 204.642 531.911C205.289 531.724 205.973 531.703 206.63 531.85C206.992 531.284 207.49 530.819 208.079 530.496C208.668 530.174 209.329 530.005 210 530.005C210.672 530.005 211.332 530.174 211.921 530.496C212.51 530.819 213.008 531.284 213.37 531.85C214.028 531.702 214.713 531.723 215.361 531.911C216.009 532.099 216.599 532.447 217.076 532.924C217.553 533.401 217.902 533.991 218.089 534.639C218.277 535.287 218.298 535.972 218.15 536.63C218.716 536.992 219.181 537.49 219.504 538.079C219.826 538.668 219.995 539.329 219.995 540C219.995 540.672 219.826 541.332 219.504 541.921C219.181 542.51 218.716 543.008 218.15 543.37C218.298 544.027 218.277 544.711 218.089 545.358C217.902 546.005 217.554 546.594 217.078 547.071C216.603 547.547 216.014 547.896 215.368 548.085C214.721 548.274 214.038 548.296 213.38 548.15C213.019 548.718 212.52 549.186 211.93 549.509C211.34 549.833 210.678 550.003 210.005 550.003C209.332 550.003 208.67 549.833 208.08 549.509C207.49 549.186 206.991 548.718 206.63 548.15C205.973 548.297 205.289 548.276 204.642 548.089C203.996 547.902 203.406 547.554 202.93 547.078C202.453 546.603 202.104 546.014 201.915 545.368C201.727 544.721 201.704 544.038 201.85 543.38C201.28 543.019 200.811 542.52 200.485 541.929C200.16 541.338 199.989 540.675 199.989 540C199.989 539.325 200.16 538.662 200.485 538.071C200.811 537.48 201.28 536.981 201.85 536.62Z" stroke="black" stroke-width="2" stroke-linecap="square"/>
<path d="M276 536V540M276 544H276.01M267.85 536.62C267.704 535.963 267.727 535.279 267.915 534.632C268.104 533.986 268.453 533.398 268.93 532.922C269.406 532.446 269.996 532.098 270.642 531.911C271.289 531.724 271.973 531.703 272.63 531.85C272.992 531.284 273.49 530.819 274.079 530.496C274.668 530.174 275.329 530.005 276 530.005C276.672 530.005 277.332 530.174 277.921 530.496C278.51 530.819 279.008 531.284 279.37 531.85C280.028 531.702 280.713 531.723 281.361 531.911C282.009 532.099 282.599 532.447 283.076 532.924C283.553 533.401 283.902 533.991 284.089 534.639C284.277 535.287 284.298 535.972 284.15 536.63C284.716 536.992 285.181 537.49 285.504 538.079C285.826 538.668 285.995 539.329 285.995 540C285.995 540.672 285.826 541.332 285.504 541.921C285.181 542.51 284.716 543.008 284.15 543.37C284.298 544.027 284.277 544.711 284.089 545.358C283.902 546.005 283.554 546.594 283.078 547.071C282.603 547.547 282.014 547.896 281.368 548.085C280.721 548.274 280.038 548.296 279.38 548.15C279.019 548.718 278.52 549.186 277.93 549.509C277.34 549.833 276.678 550.003 276.005 550.003C275.332 550.003 274.67 549.833 274.08 549.509C273.49 549.186 272.991 548.718 272.63 548.15C271.973 548.297 271.289 548.276 270.642 548.089C269.996 547.902 269.406 547.554 268.93 547.078C268.453 546.603 268.104 546.014 267.915 545.368C267.727 544.721 267.704 544.038 267.85 543.38C267.28 543.019 266.811 542.52 266.485 541.929C266.16 541.338 265.989 540.675 265.989 540C265.989 539.325 266.16 538.662 266.485 538.071C266.811 537.48 267.28 536.981 267.85 536.62Z" stroke="black" stroke-width="2" stroke-linecap="square"/>
<path d="M342 535V545M345.4 538C344.96 537.238 344.28 536.642 343.467 536.305C342.653 535.968 341.751 535.908 340.901 536.136C340.05 536.364 339.299 536.866 338.763 537.565C338.227 538.264 337.936 539.12 337.936 540C337.936 540.881 338.227 541.737 338.763 542.435C339.299 543.134 340.05 543.636 340.901 543.864C341.751 544.092 342.653 544.033 343.467 543.696C344.28 543.359 344.96 542.763 345.4 542M333.85 536.62C333.704 535.963 333.727 535.279 333.915 534.632C334.104 533.986 334.453 533.398 334.93 532.922C335.406 532.446 335.996 532.098 336.642 531.911C337.289 531.724 337.973 531.703 338.63 531.85C338.992 531.284 339.49 530.819 340.079 530.496C340.668 530.174 341.329 530.005 342 530.005C342.672 530.005 343.332 530.174 343.921 530.496C344.51 530.819 345.008 531.284 345.37 531.85C346.028 531.702 346.713 531.723 347.361 531.911C348.009 532.099 348.599 532.447 349.076 532.924C349.553 533.401 349.902 533.991 350.089 534.639C350.277 535.287 350.298 535.972 350.15 536.63C350.716 536.992 351.181 537.49 351.504 538.079C351.826 538.668 351.995 539.329 351.995 540C351.995 540.672 351.826 541.332 351.504 541.921C351.181 542.51 350.716 543.008 350.15 543.37C350.298 544.027 350.277 544.711 350.089 545.358C349.902 546.005 349.554 546.594 349.078 547.071C348.603 547.547 348.014 547.896 347.368 548.085C346.721 548.274 346.038 548.296 345.38 548.15C345.019 548.718 344.52 549.186 343.93 549.509C343.34 549.833 342.678 550.003 342.005 550.003C341.332 550.003 340.67 549.833 340.08 549.509C339.49 549.186 338.991 548.718 338.63 548.15C337.973 548.297 337.289 548.276 336.642 548.089C335.996 547.902 335.406 547.554 334.93 547.078C334.453 546.603 334.104 546.014 333.915 545.368C333.727 544.721 333.704 544.038 333.85 543.38C333.28 543.019 332.811 542.52 332.485 541.929C332.16 541.338 331.989 540.675 331.989 540C331.989 539.325 332.16 538.662 332.485 538.071C332.811 537.48 333.28 536.981 333.85 536.62Z" stroke="black" stroke-width="2" stroke-linecap="square"/>
<path d="M405 540L407 542L411 538M399.85 536.62C399.704 535.963 399.727 535.279 399.915 534.632C400.104 533.986 400.453 533.398 400.93 532.922C401.406 532.446 401.996 532.098 402.642 531.911C403.289 531.724 403.973 531.703 404.63 531.85C404.992 531.284 405.49 530.819 406.079 530.496C406.668 530.174 407.329 530.005 408 530.005C408.672 530.005 409.332 530.174 409.921 530.496C410.51 530.819 411.008 531.284 411.37 531.85C412.028 531.702 412.713 531.723 413.361 531.911C414.009 532.099 414.599 532.447 415.076 532.924C415.553 533.401 415.902 533.991 416.089 534.639C416.277 535.287 416.298 535.972 416.15 536.63C416.716 536.992 417.181 537.49 417.504 538.079C417.826 538.668 417.995 539.329 417.995 540C417.995 540.672 417.826 541.332 417.504 541.921C417.181 542.51 416.716 543.008 416.15 543.37C416.298 544.027 416.277 544.711 416.089 545.358C415.902 546.005 415.554 546.594 415.078 547.071C414.603 547.547 414.014 547.896 413.368 548.085C412.721 548.274 412.038 548.296 411.38 548.15C411.019 548.718 410.52 549.186 409.93 549.509C409.34 549.833 408.678 550.003 408.005 550.003C407.332 550.003 406.67 549.833 406.08 549.509C405.49 549.186 404.991 548.718 404.63 548.15C403.973 548.297 403.289 548.276 402.642 548.089C401.996 547.902 401.406 547.554 400.93 547.078C400.453 546.603 400.104 546.014 399.915 545.368C399.727 544.721 399.704 544.038 399.85 543.38C399.28 543.019 398.811 542.52 398.485 541.929C398.16 541.338 397.989 540.675 397.989 540C397.989 539.325 398.16 538.662 398.485 538.071C398.811 537.48 399.28 536.981 399.85 536.62Z" stroke="black" stroke-width="2" stroke-linecap="square"/>
<path d="M478 536H472C471.47 536 470.961 536.211 470.586 536.586C470.211 536.961 470 537.47 470 538C470 538.531 470.211 539.039 470.586 539.414C470.961 539.789 471.47 540 472 540H476C476.531 540 477.039 540.211 477.414 540.586C477.789 540.961 478 541.47 478 542C478 542.531 477.789 543.039 477.414 543.414C477.039 543.789 476.531 544 476 544H470M474 546V534M465.85 536.62C465.704 535.963 465.727 535.279 465.915 534.632C466.104 533.986 466.453 533.398 466.93 532.922C467.406 532.446 467.996 532.098 468.642 531.911C469.289 531.724 469.973 531.703 470.63 531.85C470.992 531.284 471.49 530.819 472.079 530.496C472.668 530.174 473.329 530.005 474 530.005C474.672 530.005 475.332 530.174 475.921 530.496C476.51 530.819 477.008 531.284 477.37 531.85C478.028 531.702 478.713 531.723 479.361 531.911C480.009 532.099 480.599 532.447 481.076 532.924C481.553 533.401 481.902 533.991 482.089 534.639C482.277 535.287 482.298 535.972 482.15 536.63C482.716 536.992 483.181 537.49 483.504 538.079C483.826 538.668 483.995 539.329 483.995 540C483.995 540.672 483.826 541.332 483.504 541.921C483.181 542.51 482.716 543.008 482.15 543.37C482.298 544.027 482.277 544.711 482.089 545.358C481.902 546.005 481.554 546.594 481.078 547.071C480.603 547.547 480.014 547.896 479.368 548.085C478.721 548.274 478.038 548.296 477.38 548.15C477.019 548.718 476.52 549.186 475.93 549.509C475.34 549.833 474.678 550.003 474.005 550.003C473.332 550.003 472.67 549.833 472.08 549.509C471.49 549.186 470.991 548.718 470.63 548.15C469.973 548.297 469.289 548.276 468.642 548.089C467.996 547.902 467.406 547.554 466.93 547.078C466.453 546.603 466.104 546.014 465.915 545.368C465.727 544.721 465.704 544.038 465.85 543.38C465.28 543.019 464.811 542.52 464.485 541.929C464.16 541.338 463.989 540.675 463.989 540C463.989 539.325 464.16 538.662 464.485 538.071C464.811 537.48 465.28 536.981 465.85 536.62Z" stroke="black" stroke-width="2" stroke-linecap="square"/>
<path d="M535 540H540M543 537.4C542.469 536.779 541.76 536.335 540.968 536.129C540.177 535.923 539.342 535.965 538.575 536.248C537.808 536.531 537.146 537.043 536.678 537.714C536.211 538.384 535.96 539.182 535.96 540C535.96 540.818 536.211 541.616 536.678 542.287C537.146 542.958 537.808 543.469 538.575 543.752C539.342 544.036 540.177 544.077 540.968 543.871C541.76 543.665 542.469 543.221 543 542.6M531.85 536.62C531.704 535.963 531.727 535.279 531.915 534.632C532.104 533.986 532.453 533.398 532.93 532.922C533.406 532.446 533.996 532.098 534.642 531.911C535.289 531.724 535.973 531.703 536.63 531.85C536.992 531.284 537.49 530.819 538.079 530.496C538.668 530.174 539.329 530.005 540 530.005C540.672 530.005 541.332 530.174 541.921 530.496C542.51 530.819 543.008 531.284 543.37 531.85C544.028 531.702 544.713 531.723 545.361 531.911C546.009 532.099 546.599 532.447 547.076 532.924C547.553 533.401 547.902 533.991 548.089 534.639C548.277 535.287 548.298 535.972 548.15 536.63C548.716 536.992 549.181 537.49 549.504 538.079C549.826 538.668 549.995 539.329 549.995 540C549.995 540.672 549.826 541.332 549.504 541.921C549.181 542.51 548.716 543.008 548.15 543.37C548.298 544.027 548.277 544.711 548.089 545.358C547.902 546.005 547.554 546.594 547.078 547.071C546.603 547.547 546.014 547.896 545.368 548.085C544.721 548.274 544.038 548.296 543.38 548.15C543.019 548.718 542.52 549.186 541.93 549.509C541.34 549.833 540.678 550.003 540.005 550.003C539.332 550.003 538.67 549.833 538.08 549.509C537.49 549.186 536.991 548.718 536.63 548.15C535.973 548.297 535.289 548.276 534.642 548.089C533.996 547.902 533.406 547.554 532.93 547.078C532.453 546.603 532.104 546.014 531.915 545.368C531.727 544.721 531.704 544.038 531.85 543.38C531.28 543.019 530.811 542.52 530.485 541.929C530.16 541.338 529.989 540.675 529.989 540C529.989 539.325 530.16 538.662 530.485 538.071C530.811 537.48 531.28 536.981 531.85 536.62Z" stroke="black" stroke-width="2" stroke-linecap="square"/>
<path d="M603.09 537C603.325 536.332 603.789 535.768 604.4 535.409C605.011 535.05 605.729 534.919 606.427 535.039C607.126 535.159 607.759 535.522 608.215 536.064C608.672 536.606 608.921 537.292 608.92 538C608.92 540 605.92 541 605.92 541M606 545H606.01M597.85 536.62C597.704 535.963 597.727 535.279 597.915 534.632C598.104 533.986 598.453 533.398 598.93 532.922C599.406 532.446 599.996 532.098 600.642 531.911C601.289 531.724 601.973 531.703 602.63 531.85C602.992 531.284 603.49 530.819 604.079 530.496C604.668 530.174 605.329 530.005 606 530.005C606.672 530.005 607.332 530.174 607.921 530.496C608.51 530.819 609.008 531.284 609.37 531.85C610.028 531.702 610.713 531.723 611.361 531.911C612.009 532.099 612.599 532.447 613.076 532.924C613.553 533.401 613.902 533.991 614.089 534.639C614.277 535.287 614.298 535.972 614.15 536.63C614.716 536.992 615.181 537.49 615.504 538.079C615.826 538.668 615.995 539.329 615.995 540C615.995 540.672 615.826 541.332 615.504 541.921C615.181 542.51 614.716 543.008 614.15 543.37C614.298 544.027 614.277 544.711 614.089 545.358C613.902 546.005 613.554 546.594 613.078 547.071C612.603 547.547 612.014 547.896 611.368 548.085C610.721 548.274 610.038 548.296 609.38 548.15C609.019 548.718 608.52 549.186 607.93 549.509C607.34 549.833 606.678 550.003 606.005 550.003C605.332 550.003 604.67 549.833 604.08 549.509C603.49 549.186 602.991 548.718 602.63 548.15C601.973 548.297 601.289 548.276 600.642 548.089C599.996 547.902 599.406 547.554 598.93 547.078C598.453 546.603 598.104 546.014 597.915 545.368C597.727 544.721 597.704 544.038 597.85 543.38C597.28 543.019 596.811 542.52 596.485 541.929C596.16 541.338 595.989 540.675 595.989 540C595.989 539.325 596.16 538.662 596.485 538.071C596.811 537.48 597.28 536.981 597.85 536.62Z" stroke="black" stroke-width="2" stroke-linecap="square"/>
<path d="M668 536H676M668 540H676M673 545L668 544H669C670.061 544 671.078 543.579 671.829 542.829C672.579 542.078 673 541.061 673 540C673 538.939 672.579 537.922 671.829 537.172C671.078 536.422 670.061 536 669 536M663.85 536.62C663.704 535.963 663.727 535.279 663.915 534.632C664.104 533.986 664.453 533.398 664.93 532.922C665.406 532.446 665.996 532.098 666.642 531.911C667.289 531.724 667.973 531.703 668.63 531.85C668.992 531.284 669.49 530.819 670.079 530.496C670.668 530.174 671.329 530.005 672 530.005C672.672 530.005 673.332 530.174 673.921 530.496C674.51 530.819 675.008 531.284 675.37 531.85C676.028 531.702 676.713 531.723 677.361 531.911C678.009 532.099 678.599 532.447 679.076 532.924C679.553 533.401 679.902 533.991 680.089 534.639C680.277 535.287 680.298 535.972 680.15 536.63C680.716 536.992 681.181 537.49 681.504 538.079C681.826 538.668 681.995 539.329 681.995 540C681.995 540.672 681.826 541.332 681.504 541.921C681.181 542.51 680.716 543.008 680.15 543.37C680.298 544.027 680.277 544.711 680.089 545.358C679.902 546.005 679.554 546.594 679.078 547.071C678.603 547.547 678.014 547.896 677.368 548.085C676.721 548.274 676.038 548.296 675.38 548.15C675.019 548.718 674.52 549.186 673.93 549.509C673.34 549.833 672.678 550.003 672.005 550.003C671.332 550.003 670.67 549.833 670.08 549.509C669.49 549.186 668.991 548.718 668.63 548.15C667.973 548.297 667.289 548.276 666.642 548.089C665.996 547.902 665.406 547.554 664.93 547.078C664.453 546.603 664.104 546.014 663.915 545.368C663.727 544.721 663.704 544.038 663.85 543.38C663.28 543.019 662.811 542.52 662.485 541.929C662.16 541.338 661.989 540.675 661.989 540C661.989 539.325 662.16 538.662 662.485 538.071C662.811 537.48 663.28 536.981 663.85 536.62Z" stroke="black" stroke-width="2" stroke-linecap="square"/>
<path d="M738 544V540M738 536H738.01M729.85 536.62C729.704 535.963 729.727 535.279 729.915 534.632C730.104 533.986 730.453 533.398 730.93 532.922C731.406 532.446 731.996 532.098 732.642 531.911C733.289 531.724 733.973 531.703 734.63 531.85C734.992 531.284 735.49 530.819 736.079 530.496C736.668 530.174 737.329 530.005 738 530.005C738.672 530.005 739.332 530.174 739.921 530.496C740.51 530.819 741.008 531.284 741.37 531.85C742.028 531.702 742.713 531.723 743.361 531.911C744.009 532.099 744.599 532.447 745.076 532.924C745.553 533.401 745.902 533.991 746.089 534.639C746.277 535.287 746.298 535.972 746.15 536.63C746.716 536.992 747.181 537.49 747.504 538.079C747.826 538.668 747.995 539.329 747.995 540C747.995 540.672 747.826 541.332 747.504 541.921C747.181 542.51 746.716 543.008 746.15 543.37C746.298 544.027 746.277 544.711 746.089 545.358C745.902 546.005 745.554 546.594 745.078 547.071C744.603 547.547 744.014 547.896 743.368 548.085C742.721 548.274 742.038 548.296 741.38 548.15C741.019 548.718 740.52 549.186 739.93 549.509C739.34 549.833 738.678 550.003 738.005 550.003C737.332 550.003 736.67 549.833 736.08 549.509C735.49 549.186 734.991 548.718 734.63 548.15C733.973 548.297 733.289 548.276 732.642 548.089C731.996 547.902 731.406 547.554 730.93 547.078C730.453 546.603 730.104 546.014 729.915 545.368C729.727 544.721 729.704 544.038 729.85 543.38C729.28 543.019 728.811 542.52 728.485 541.929C728.16 541.338 727.989 540.675 727.989 540C727.989 539.325 728.16 538.662 728.485 538.071C728.811 537.48 729.28 536.981 729.85 536.62Z" stroke="black" stroke-width="2" stroke-linecap="square"/>
<path d="M801 536L804 539M804 539V546M804 539L807 536M801 540H807M801 544H807M795.85 536.62C795.704 535.963 795.727 535.279 795.915 534.632C796.104 533.986 796.453 533.398 796.93 532.922C797.406 532.446 797.996 532.098 798.642 531.911C799.289 531.724 799.973 531.703 800.63 531.85C800.992 531.284 801.49 530.819 802.079 530.496C802.668 530.174 803.329 530.005 804 530.005C804.672 530.005 805.332 530.174 805.921 530.496C806.51 530.819 807.008 531.284 807.37 531.85C808.028 531.702 808.713 531.723 809.361 531.911C810.009 532.099 810.599 532.447 811.076 532.924C811.553 533.401 811.902 533.991 812.089 534.639C812.277 535.287 812.298 535.972 812.15 536.63C812.716 536.992 813.181 537.49 813.504 538.079C813.826 538.668 813.995 539.329 813.995 540C813.995 540.672 813.826 541.332 813.504 541.921C813.181 542.51 812.716 543.008 812.15 543.37C812.298 544.027 812.277 544.711 812.089 545.358C811.902 546.005 811.554 546.594 811.078 547.071C810.603 547.547 810.014 547.896 809.368 548.085C808.721 548.274 808.038 548.296 807.38 548.15C807.019 548.718 806.52 549.186 805.93 549.509C805.34 549.833 804.678 550.003 804.005 550.003C803.332 550.003 802.67 549.833 802.08 549.509C801.49 549.186 800.991 548.718 800.63 548.15C799.973 548.297 799.289 548.276 798.642 548.089C797.996 547.902 797.406 547.554 796.93 547.078C796.453 546.603 796.104 546.014 795.915 545.368C795.727 544.721 795.704 544.038 795.85 543.38C795.28 543.019 794.811 542.52 794.485 541.929C794.16 541.338 793.989 540.675 793.989 540C793.989 539.325 794.16 538.662 794.485 538.071C794.811 537.48 795.28 536.981 795.85 536.62Z" stroke="black" stroke-width="2" stroke-linecap="square"/>
<path d="M866 540H874M861.85 536.62C861.704 535.963 861.727 535.279 861.915 534.632C862.104 533.986 862.453 533.398 862.93 532.922C863.406 532.446 863.996 532.098 864.642 531.911C865.289 531.724 865.973 531.703 866.63 531.85C866.992 531.284 867.49 530.819 868.079 530.496C868.668 530.174 869.329 530.005 870 530.005C870.672 530.005 871.332 530.174 871.921 530.496C872.51 530.819 873.008 531.284 873.37 531.85C874.028 531.702 874.713 531.723 875.361 531.911C876.009 532.099 876.599 532.447 877.076 532.924C877.553 533.401 877.902 533.991 878.089 534.639C878.277 535.287 878.298 535.972 878.15 536.63C878.716 536.992 879.181 537.49 879.504 538.079C879.826 538.668 879.995 539.329 879.995 540C879.995 540.672 879.826 541.332 879.504 541.921C879.181 542.51 878.716 543.008 878.15 543.37C878.298 544.027 878.277 544.711 878.089 545.358C877.902 546.005 877.554 546.594 877.078 547.071C876.603 547.547 876.014 547.896 875.368 548.085C874.721 548.274 874.038 548.296 873.38 548.15C873.019 548.718 872.52 549.186 871.93 549.509C871.34 549.833 870.678 550.003 870.005 550.003C869.332 550.003 868.67 549.833 868.08 549.509C867.49 549.186 866.991 548.718 866.63 548.15C865.973 548.297 865.289 548.276 864.642 548.089C863.996 547.902 863.406 547.554 862.93 547.078C862.453 546.603 862.104 546.014 861.915 545.368C861.727 544.721 861.704 544.038 861.85 543.38C861.28 543.019 860.811 542.52 860.485 541.929C860.16 541.338 859.989 540.675 859.989 540C859.989 539.325 860.16 538.662 860.485 538.071C860.811 537.48 861.28 536.981 861.85 536.62Z" stroke="black" stroke-width="2" stroke-linecap="square"/>
<path d="M15.0002 603L9.00019 609M9.00019 603H9.01019M15.0002 609H15.0102M3.85019 602.62C3.70423 601.963 3.72665 601.279 3.91535 600.632C4.10405 599.986 4.45294 599.398 4.92966 598.922C5.40638 598.446 5.9955 598.098 6.6424 597.911C7.2893 597.724 7.97303 597.703 8.63019 597.85C8.9919 597.284 9.4902 596.819 10.0791 596.496C10.6681 596.174 11.3287 596.005 12.0002 596.005C12.6716 596.005 13.3323 596.174 13.9212 596.496C14.5102 596.819 15.0085 597.284 15.3702 597.85C16.0284 597.702 16.7133 597.723 17.3612 597.911C18.0091 598.099 18.599 598.447 19.076 598.924C19.5531 599.401 19.9017 599.991 20.0895 600.639C20.2773 601.287 20.2982 601.972 20.1502 602.63C20.7159 602.992 21.1814 603.49 21.5039 604.079C21.8264 604.668 21.9954 605.329 21.9954 606C21.9954 606.672 21.8264 607.332 21.5039 607.921C21.1814 608.51 20.7159 609.008 20.1502 609.37C20.2975 610.027 20.2765 610.711 20.0892 611.358C19.9018 612.005 19.5542 612.594 19.0785 613.071C18.6027 613.547 18.0144 613.896 17.3679 614.085C16.7213 614.274 16.0377 614.296 15.3802 614.15C15.019 614.718 14.5203 615.186 13.9303 615.509C13.3404 615.833 12.6782 616.003 12.0052 616.003C11.3322 616.003 10.67 615.833 10.0801 615.509C9.49011 615.186 8.99143 614.718 8.63019 614.15C7.97303 614.297 7.2893 614.276 6.6424 614.089C5.9955 613.902 5.40638 613.554 4.92966 613.078C4.45294 612.603 4.10405 612.014 3.91535 611.368C3.72665 610.721 3.70423 610.038 3.85019 609.38C3.28015 609.019 2.81061 608.52 2.48524 607.929C2.15988 607.338 1.98926 606.675 1.98926 606C1.98926 605.325 2.15988 604.662 2.48524 604.071C2.81061 603.48 3.28015 602.981 3.85019 602.62Z" stroke="black" stroke-width="2" stroke-linecap="square"/>
<path d="M78.0002 602V610M74.0002 606H82.0002M69.8502 602.62C69.7042 601.963 69.7266 601.279 69.9153 600.632C70.1041 599.986 70.4529 599.398 70.9297 598.922C71.4064 598.446 71.9955 598.098 72.6424 597.911C73.2893 597.724 73.973 597.703 74.6302 597.85C74.9919 597.284 75.4902 596.819 76.0791 596.496C76.6681 596.174 77.3287 596.005 78.0002 596.005C78.6716 596.005 79.3323 596.174 79.9212 596.496C80.5102 596.819 81.0085 597.284 81.3702 597.85C82.0284 597.702 82.7133 597.723 83.3612 597.911C84.0091 598.099 84.599 598.447 85.076 598.924C85.5531 599.401 85.9017 599.991 86.0895 600.639C86.2773 601.287 86.2982 601.972 86.1502 602.63C86.7159 602.992 87.1814 603.49 87.5039 604.079C87.8264 604.668 87.9954 605.329 87.9954 606C87.9954 606.672 87.8264 607.332 87.5039 607.921C87.1814 608.51 86.7159 609.008 86.1502 609.37C86.2975 610.027 86.2765 610.711 86.0892 611.358C85.9018 612.005 85.5542 612.594 85.0785 613.071C84.6027 613.547 84.0144 613.896 83.3679 614.085C82.7213 614.274 82.0377 614.296 81.3802 614.15C81.019 614.718 80.5203 615.186 79.9303 615.509C79.3404 615.833 78.6782 616.003 78.0052 616.003C77.3322 616.003 76.67 615.833 76.0801 615.509C75.4901 615.186 74.9914 614.718 74.6302 614.15C73.973 614.297 73.2893 614.276 72.6424 614.089C71.9955 613.902 71.4064 613.554 70.9297 613.078C70.4529 612.603 70.1041 612.014 69.9153 611.368C69.7266 610.721 69.7042 610.038 69.8502 609.38C69.2801 609.019 68.8106 608.52 68.4852 607.929C68.1599 607.338 67.9893 606.675 67.9893 606C67.9893 605.325 68.1599 604.662 68.4852 604.071C68.8106 603.48 69.2801 602.981 69.8502 602.62Z" stroke="black" stroke-width="2" stroke-linecap="square"/>
<path d="M140 606H144M142 610V603.5C142 602.837 142.264 602.201 142.732 601.732C143.201 601.263 143.837 601 144.5 601C145.163 601 145.799 601.263 146.268 601.732C146.737 602.201 147 602.837 147 603.5M140 610H147M135.85 602.62C135.704 601.963 135.727 601.279 135.915 600.632C136.104 599.986 136.453 599.398 136.93 598.922C137.406 598.446 137.996 598.098 138.642 597.911C139.289 597.724 139.973 597.703 140.63 597.85C140.992 597.284 141.49 596.819 142.079 596.496C142.668 596.174 143.329 596.005 144 596.005C144.672 596.005 145.332 596.174 145.921 596.496C146.51 596.819 147.008 597.284 147.37 597.85C148.028 597.702 148.713 597.723 149.361 597.911C150.009 598.099 150.599 598.447 151.076 598.924C151.553 599.401 151.902 599.991 152.089 600.639C152.277 601.287 152.298 601.972 152.15 602.63C152.716 602.992 153.181 603.49 153.504 604.079C153.826 604.668 153.995 605.329 153.995 606C153.995 606.672 153.826 607.332 153.504 607.921C153.181 608.51 152.716 609.008 152.15 609.37C152.298 610.027 152.277 610.711 152.089 611.358C151.902 612.005 151.554 612.594 151.078 613.071C150.603 613.547 150.014 613.896 149.368 614.085C148.721 614.274 148.038 614.296 147.38 614.15C147.019 614.718 146.52 615.186 145.93 615.509C145.34 615.833 144.678 616.003 144.005 616.003C143.332 616.003 142.67 615.833 142.08 615.509C141.49 615.186 140.991 614.718 140.63 614.15C139.973 614.297 139.289 614.276 138.642 614.089C137.996 613.902 137.406 613.554 136.93 613.078C136.453 612.603 136.104 612.014 135.915 611.368C135.727 610.721 135.704 610.038 135.85 609.38C135.28 609.019 134.811 608.52 134.485 607.929C134.16 607.338 133.989 606.675 133.989 606C133.989 605.325 134.16 604.662 134.485 604.071C134.811 603.48 135.28 602.981 135.85 602.62Z" stroke="black" stroke-width="2" stroke-linecap="square"/>
<path d="M207 610H212M207 606H212C212.531 606 213.039 605.789 213.414 605.414C213.789 605.039 214 604.531 214 604C214 603.47 213.789 602.961 213.414 602.586C213.039 602.211 212.531 602 212 602H209V611M201.85 602.62C201.704 601.963 201.727 601.279 201.915 600.632C202.104 599.986 202.453 599.398 202.93 598.922C203.406 598.446 203.996 598.098 204.642 597.911C205.289 597.724 205.973 597.703 206.63 597.85C206.992 597.284 207.49 596.819 208.079 596.496C208.668 596.174 209.329 596.005 210 596.005C210.672 596.005 211.332 596.174 211.921 596.496C212.51 596.819 213.008 597.284 213.37 597.85C214.028 597.702 214.713 597.723 215.361 597.911C216.009 598.099 216.599 598.447 217.076 598.924C217.553 599.401 217.902 599.991 218.089 600.639C218.277 601.287 218.298 601.972 218.15 602.63C218.716 602.992 219.181 603.49 219.504 604.079C219.826 604.668 219.995 605.329 219.995 606C219.995 606.672 219.826 607.332 219.504 607.921C219.181 608.51 218.716 609.008 218.15 609.37C218.298 610.027 218.277 610.711 218.089 611.358C217.902 612.005 217.554 612.594 217.078 613.071C216.603 613.547 216.014 613.896 215.368 614.085C214.721 614.274 214.038 614.296 213.38 614.15C213.019 614.718 212.52 615.186 211.93 615.509C211.34 615.833 210.678 616.003 210.005 616.003C209.332 616.003 208.67 615.833 208.08 615.509C207.49 615.186 206.991 614.718 206.63 614.15C205.973 614.297 205.289 614.276 204.642 614.089C203.996 613.902 203.406 613.554 202.93 613.078C202.453 612.603 202.104 612.014 201.915 611.368C201.727 610.721 201.704 610.038 201.85 609.38C201.28 609.019 200.811 608.52 200.485 607.929C200.16 607.338 199.989 606.675 199.989 606C199.989 605.325 200.16 604.662 200.485 604.071C200.811 603.48 201.28 602.981 201.85 602.62Z" stroke="black" stroke-width="2" stroke-linecap="square"/>
<path d="M275 611V602H279M275 606H278M273 610H277M267.85 602.62C267.704 601.963 267.727 601.279 267.915 600.632C268.104 599.986 268.453 599.398 268.93 598.922C269.406 598.446 269.996 598.098 270.642 597.911C271.289 597.724 271.973 597.703 272.63 597.85C272.992 597.284 273.49 596.819 274.079 596.496C274.668 596.174 275.329 596.005 276 596.005C276.672 596.005 277.332 596.174 277.921 596.496C278.51 596.819 279.008 597.284 279.37 597.85C280.028 597.702 280.713 597.723 281.361 597.911C282.009 598.099 282.599 598.447 283.076 598.924C283.553 599.401 283.902 599.991 284.089 600.639C284.277 601.287 284.298 601.972 284.15 602.63C284.716 602.992 285.181 603.49 285.504 604.079C285.826 604.668 285.995 605.329 285.995 606C285.995 606.672 285.826 607.332 285.504 607.921C285.181 608.51 284.716 609.008 284.15 609.37C284.298 610.027 284.277 610.711 284.089 611.358C283.902 612.005 283.554 612.594 283.078 613.071C282.603 613.547 282.014 613.896 281.368 614.085C280.721 614.274 280.038 614.296 279.38 614.15C279.019 614.718 278.52 615.186 277.93 615.509C277.34 615.833 276.678 616.003 276.005 616.003C275.332 616.003 274.67 615.833 274.08 615.509C273.49 615.186 272.991 614.718 272.63 614.15C271.973 614.297 271.289 614.276 270.642 614.089C269.996 613.902 269.406 613.554 268.93 613.078C268.453 612.603 268.104 612.014 267.915 611.368C267.727 610.721 267.704 610.038 267.85 609.38C267.28 609.019 266.811 608.52 266.485 607.929C266.16 607.338 265.989 606.675 265.989 606C265.989 605.325 266.16 604.662 266.485 604.071C266.811 603.48 267.28 602.981 267.85 602.62Z" stroke="black" stroke-width="2" stroke-linecap="square"/>
<path d="M345 603L339 609M339 603L345 609M333.85 602.62C333.704 601.963 333.727 601.279 333.915 600.632C334.104 599.986 334.453 599.398 334.93 598.922C335.406 598.446 335.996 598.098 336.642 597.911C337.289 597.724 337.973 597.703 338.63 597.85C338.992 597.284 339.49 596.819 340.079 596.496C340.668 596.174 341.329 596.005 342 596.005C342.672 596.005 343.332 596.174 343.921 596.496C344.51 596.819 345.008 597.284 345.37 597.85C346.028 597.702 346.713 597.723 347.361 597.911C348.009 598.099 348.599 598.447 349.076 598.924C349.553 599.401 349.902 599.991 350.089 600.639C350.277 601.287 350.298 601.972 350.15 602.63C350.716 602.992 351.181 603.49 351.504 604.079C351.826 604.668 351.995 605.329 351.995 606C351.995 606.672 351.826 607.332 351.504 607.921C351.181 608.51 350.716 609.008 350.15 609.37C350.298 610.027 350.277 610.711 350.089 611.358C349.902 612.005 349.554 612.594 349.078 613.071C348.603 613.547 348.014 613.896 347.368 614.085C346.721 614.274 346.038 614.296 345.38 614.15C345.019 614.718 344.52 615.186 343.93 615.509C343.34 615.833 342.678 616.003 342.005 616.003C341.332 616.003 340.67 615.833 340.08 615.509C339.49 615.186 338.991 614.718 338.63 614.15C337.973 614.297 337.289 614.276 336.642 614.089C335.996 613.902 335.406 613.554 334.93 613.078C334.453 612.603 334.104 612.014 333.915 611.368C333.727 610.721 333.704 610.038 333.85 609.38C333.28 609.019 332.811 608.52 332.485 607.929C332.16 607.338 331.989 606.675 331.989 606C331.989 605.325 332.16 604.662 332.485 604.071C332.811 603.48 333.28 602.981 333.85 602.62Z" stroke="black" stroke-width="2" stroke-linecap="square"/>
<path d="M418 612H402C401.47 612 400.961 611.789 400.586 611.414C400.211 611.039 400 610.53 400 610V601C400 600.47 399.789 599.961 399.414 599.586C399.039 599.211 398.53 599 398 599M413 608V598C413 597.47 412.789 596.961 412.414 596.586C412.039 596.211 411.53 596 411 596H410C409.47 596 408.961 596.211 408.586 596.586C408.211 596.961 408 597.47 408 598V608M405 600H416C416.552 600 417 600.448 417 601V607C417 607.552 416.552 608 416 608H405C404.448 608 404 607.552 404 607V601C404 600.448 404.448 600 405 600ZM416 614C416 615.105 415.105 616 414 616C412.895 616 412 615.105 412 614C412 612.895 412.895 612 414 612C415.105 612 416 612.895 416 614ZM407 614C407 615.105 406.105 616 405 616C403.895 616 403 615.105 403 614C403 612.895 403.895 612 405 612C406.105 612 407 612.895 407 614Z" stroke="black" stroke-width="2" stroke-linecap="square"/>
<path d="M466.9 598.9L481.1 613.1M484 606C484 611.523 479.523 616 474 616C468.477 616 464 611.523 464 606C464 600.477 468.477 596 474 596C479.523 596 484 600.477 484 606Z" stroke="black" stroke-width="2" stroke-linecap="square"/>
<path d="M532 607C535.5 605 540 605 542 609C542.846 608.568 543.79 608.363 544.739 608.404C545.688 608.445 546.61 608.731 547.416 609.235C548.222 609.738 548.883 610.442 549.336 611.277C549.789 612.112 550.018 613.05 550 614M533.15 611.89C538.67 610.37 541.8 605 540.15 599.89C539.55 598 539.5 596 541 596C544.22 596 546 601.5 546 604C546 610.5 541.8 616 535.51 616C533.11 616 530 616 530 614C530 612.5 531.14 612.45 533.15 611.89Z" stroke="black" stroke-width="2" stroke-linecap="square"/>
<path d="M600 606H600.01M612 606H612.01M598 600H614C615.105 600 616 600.895 616 602V610C616 611.105 615.105 612 614 612H598C596.895 612 596 611.105 596 610V602C596 600.895 596.895 600 598 600ZM608 606C608 607.105 607.105 608 606 608C604.895 608 604 607.105 604 606C604 604.895 604.895 604 606 604C607.105 604 608 604.895 608 606Z" stroke="black" stroke-width="2" stroke-linecap="square"/>
<path d="M672 614V604M678 614V598M666 614V610" stroke="black" stroke-width="2" stroke-linecap="square"/>
<path d="M744 614V604M738 614V598M732 614V608" stroke="black" stroke-width="2" stroke-linecap="square"/>
<path d="M795 597V615H813M810 611V603M805 611V599M800 611V608" stroke="black" stroke-width="2" stroke-linecap="square"/>
<path d="M861 597V615H879M871 611V603M876 611V599M866 611V608" stroke="black" stroke-width="2" stroke-linecap="square"/>
<path d="M3 663V681H21M8 670H10C10.5523 670 11 670.448 11 671V676C11 676.552 10.5523 677 10 677H8C7.44772 677 7 676.552 7 676V671C7 670.448 7.44772 670 8 670ZM16 665H18C18.5523 665 19 665.448 19 666V676C19 676.552 18.5523 677 18 677H16C15.4477 677 15 676.552 15 676V666C15 665.448 15.4477 665 16 665Z" stroke="black" stroke-width="2" stroke-linecap="square"/>
<path d="M69 663V681H87M73 676H81M73 671H85M73 666H76" stroke="black" stroke-width="2" stroke-linecap="square"/>
<path d="M135 663V681H153M140 665H150C150.552 665 151 665.448 151 666V668C151 668.552 150.552 669 150 669H140C139.448 669 139 668.552 139 668V666C139 665.448 139.448 665 140 665ZM140 673H145C145.552 673 146 673.448 146 674V676C146 676.552 145.552 677 145 677H140C139.448 677 139 676.552 139 676V674C139 673.448 139.448 673 140 673Z" stroke="black" stroke-width="2" stroke-linecap="square"/>
<path d="M201 665V679M206 665V679M210 665V679M215 665V679M219 665V679" stroke="black" stroke-width="2" stroke-linecap="square"/>
<path d="M268 680H284M270 676L276 664L282 676M272 672H280" stroke="black" stroke-width="2" stroke-linecap="square"/>
<path d="M352 671V673M334 667H346C347.105 667 348 667.895 348 669V675C348 676.105 347.105 677 346 677H334C332.895 677 332 676.105 332 675V669C332 667.895 332.895 667 334 667Z" stroke="black" stroke-width="2" stroke-linecap="square"/>
<path d="M411 667H412C412.53 667 413.039 667.211 413.414 667.586C413.789 667.961 414 668.47 414 669V675C414 675.53 413.789 676.039 413.414 676.414C413.039 676.789 412.53 677 412 677H410M402 667H400C399.47 667 398.961 667.211 398.586 667.586C398.211 667.961 398 668.47 398 669V675C398 675.53 398.211 676.039 398.586 676.414C398.961 676.789 399.47 677 400 677H401M407 667L404 672H408L405 677M418 671V673" stroke="black" stroke-width="2" stroke-linecap="square"/>
<path d="M484 671V673M468 671V673M472 671V673M476 671V673M466 667H478C479.105 667 480 667.895 480 669V675C480 676.105 479.105 677 478 677H466C464.895 677 464 676.105 464 675V669C464 667.895 464.895 667 466 667Z" stroke="black" stroke-width="2" stroke-linecap="square"/>
<path d="M550 671V673M534 671V673M532 667H544C545.105 667 546 667.895 546 669V675C546 676.105 545.105 677 544 677H532C530.895 677 530 676.105 530 675V669C530 667.895 530.895 667 532 667Z" stroke="black" stroke-width="2" stroke-linecap="square"/>
<path d="M616 671V673M600 671V673M604 671V673M598 667H610C611.105 667 612 667.895 612 669V675C612 676.105 611.105 677 610 677H598C596.895 677 596 676.105 596 675V669C596 667.895 596.895 667 598 667Z" stroke="black" stroke-width="2" stroke-linecap="square"/>
<path d="M674 667H676C676.53 667 677.039 667.211 677.414 667.586C677.789 667.961 678 668.47 678 669V675C678 676 677 677 676 677H674M666 667H664C663.47 667 662.961 667.211 662.586 667.586C662.211 667.961 662 668.47 662 669V675C662 676 663 677 664 677H666M682 671V673M670 667V673M670 677V677.01" stroke="black" stroke-width="2" stroke-linecap="square"/>
<g clip-path="url(#clip2_6303_3021)">
<path d="M736.3 681C736.467 681.304 736.713 681.558 737.012 681.735C737.312 681.912 737.653 682.005 738 682.005C738.347 682.005 738.688 681.912 738.988 681.735C739.287 681.558 739.533 681.304 739.7 681M732 668C732 666.409 732.632 664.883 733.757 663.757C734.883 662.632 736.409 662 738 662C739.591 662 741.117 662.632 742.243 663.757C743.368 664.883 744 666.409 744 668C744 675 747 677 747 677H729C729 677 732 675 732 668Z" stroke="black" stroke-width="2" stroke-linecap="square"/>
</g>
<g clip-path="url(#clip3_6303_3021)">
<path d="M811.4 674.9C812.2 676.4 813 677 813 677H795C795 677 798 675 798 668C798 664.7 800.7 662 804 662C804.7 662 805.3 662.1 805.9 662.3M802.3 681C802.467 681.304 802.713 681.558 803.012 681.735C803.312 681.912 803.653 682.005 804 682.005C804.347 682.005 804.688 681.912 804.988 681.735C805.287 681.558 805.533 681.304 805.7 681M813 668C813 669.657 811.657 671 810 671C808.343 671 807 669.657 807 668C807 666.343 808.343 665 810 665C811.657 665 813 666.343 813 668Z" stroke="black" stroke-width="2" stroke-linecap="square"/>
</g>
<g clip-path="url(#clip4_6303_3021)">
<path d="M876.4 672C877.2 675.8 879 677 879 677H861C861 677 864 675 864 668C864 664.7 866.7 662 870 662C871.8 662 873.4 662.8 874.5 664M868.3 681C868.467 681.304 868.713 681.558 869.012 681.735C869.312 681.912 869.653 682.005 870 682.005C870.347 682.005 870.688 681.912 870.988 681.735C871.287 681.558 871.533 681.304 871.7 681M873 668H879" stroke="black" stroke-width="2" stroke-linecap="square"/>
</g>
<defs>
<clipPath id="clip0_6303_3021">
<rect width="24" height="24" fill="white" transform="translate(66)"/>
</clipPath>
<clipPath id="clip1_6303_3021">
<rect width="24" height="24" fill="white" transform="translate(462)"/>
</clipPath>
<clipPath id="clip2_6303_3021">
<rect width="24" height="24" fill="white" transform="translate(726 660)"/>
</clipPath>
<clipPath id="clip3_6303_3021">
<rect width="24" height="24" fill="white" transform="translate(792 660)"/>
</clipPath>
<clipPath id="clip4_6303_3021">
<rect width="24" height="24" fill="white" transform="translate(858 660)"/>
</clipPath>
</defs>
</svg>
