<svg width="165" height="165" viewBox="0 0 165 165" fill="none" xmlns="http://www.w3.org/2000/svg">
<path d="M82.5 0C36.9272 0 0 36.9365 0 82.5C0 119.765 24.6806 151.244 58.5977 161.484C64.0177 156.392 71.8945 147.062 74.3513 133.615C74.3513 133.615 77.155 118.293 69.4846 103.627C67.8154 100.429 66.0994 99.2476 64.5897 98.7318C62.7143 98.0848 60.52 98.3474 57.8475 99.5007C51.2179 102.361 48.1891 107.875 46.3793 114.551C45.2915 118.555 43.7443 122.578 41.6532 126.151C39.8716 129.179 36.6646 128.495 34.7235 125.485C33.6545 123.816 32.2667 122.109 30.607 121.124C26.5091 118.677 24.3055 115.461 24.5118 110.566C24.615 107.865 24.0617 105.277 21.9706 103.13C17.8822 98.9475 19.0637 94.8215 24.8025 93.6307C29.5474 92.6367 34.3766 91.999 39.1964 91.4739C47.6734 90.5456 55.9158 91.1832 63.3894 95.9187C63.4644 95.9749 63.6707 95.8437 64.1302 95.6936C56.1784 89.1484 47.5796 84.6755 37.321 83.8784C33.1107 83.5596 28.8722 83.3252 24.7275 82.5844C23.0959 82.3031 20.6109 80.9528 20.414 79.7806C20.0952 77.8489 20.7141 75.0077 22.055 73.723C24.4462 71.435 26.4716 69.0813 27.8595 66.0994C28.6096 64.4584 29.9131 63.6238 31.8166 64.1302C40.3123 66.362 48.2172 69.5689 53.6559 77.005C54.228 77.7833 54.95 78.4772 55.597 79.1992C55.8877 78.9742 56.1784 78.7491 56.4597 78.5241C52.6338 72.7009 48.9768 66.7652 44.9258 61.092C42.0939 57.1255 42.0377 56.6848 46.6887 54.9031C46.9419 54.8 47.1951 54.7156 47.4577 54.6218C53.5809 52.5213 55.7658 53.8716 57.2286 60.0887C57.8757 62.8268 58.7665 65.7243 60.3606 67.9748C62.9299 71.585 64.0364 75.3546 63.3988 79.6306C63.0518 82.003 63.08 84.2629 63.4738 86.4196C64.1865 90.4049 65.9494 93.1524 67.7498 95.8343C70.9943 100.663 72.7853 106.327 75.3546 111.532C78.3928 117.674 80.0244 131.317 73.6105 164.522C75.1577 164.691 76.7237 164.812 78.2897 164.897C78.2803 157.686 79.5837 150.681 82.65 144.155C91.8959 124.594 97.9817 103.599 104.968 82.9876C106.712 77.8396 109.319 72.8416 112.385 68.6125C117.57 61.4577 125.841 59.9574 132.077 64.0458C137.919 67.8904 140.282 76.78 137.853 85.9133C134.674 97.8316 127.313 106.102 119.268 113.416C113.304 118.855 106.843 123.562 100.457 128.298C88.9233 136.859 82.5094 150.728 81.9092 164.991C82.0968 165 82.2937 165 82.4812 165C84.8724 165 87.2261 164.897 89.5704 164.7C89.8611 160.086 90.3018 155.36 91.2114 150.747C94.6903 133.408 103.777 124.697 118.911 122.522C124.294 122.531 131.017 121.434 136.653 116.408C142.139 111.503 143.986 105.221 144.774 105.643C146.086 106.346 145.964 118.246 139.26 128.861C136.334 133.502 131.589 142.814 121.631 146.94C110.894 151.394 102.98 146.461 98.0754 151.872C95.1029 155.135 95.1123 160.086 95.6843 163.95C134.984 157.658 165 123.591 165 82.5094C165 36.9365 128.063 0.00937713 82.5 0.00937713V0ZM82.3406 129.517C83.8878 110.453 80.4933 97.7003 76.855 89.3828C74.9326 85.0131 70.8724 77.08 71.585 66.5401C71.9601 61.0733 73.4886 56.6566 74.7733 53.7122C84.8443 58.7008 90.3393 67.3934 92.8524 78.7398C97.044 97.7566 91.3426 114.148 82.3406 129.517ZM117.027 52.2119C114.317 52.4744 111.588 52.7182 108.953 53.459C107.209 53.9654 105.605 54.7062 104.386 56.1221C103.298 57.3505 102.689 58.8321 102.22 60.3793C101.611 62.3673 101.245 64.4115 100.926 66.4651C100.804 67.1121 100.71 67.7591 100.542 68.4062C100.485 67.7873 100.438 67.1778 100.354 66.5495C100.092 64.0083 99.8383 61.4671 99.0882 59.0197C98.5349 57.2099 97.6441 55.597 96.0593 54.4436C94.906 53.5997 93.64 53.0277 92.2804 52.6807C90.4331 52.2212 88.5483 51.8649 86.6822 51.4617C85.9414 51.321 85.1725 51.2366 84.4317 51.1054C84.3661 51.1054 84.3098 51.0772 84.1691 51.0303C85.2006 50.9272 86.1383 50.8334 87.0948 50.7303C89.1671 50.5052 91.2582 50.2145 93.3025 49.6707C96.5563 48.7986 98.6568 46.7825 99.7352 43.613C100.373 41.7095 100.776 39.7403 101.123 37.743C101.292 36.7865 101.423 35.8206 101.573 34.8548C101.573 34.8173 101.601 34.7892 101.667 34.686C101.798 36.0363 101.929 37.2741 102.079 38.5494C102.295 40.4905 102.605 42.4221 103.195 44.3163C104.096 47.2514 106.055 49.1174 108.925 50.1208C110.819 50.7584 112.732 51.1804 114.682 51.5086C115.798 51.7055 116.877 51.8837 117.992 52.1181C117.674 52.1462 117.355 52.1744 117.055 52.2119H117.027Z" fill="white"/>
</svg>
