<svg width="503" height="189" viewBox="0 0 503 189" fill="none" xmlns="http://www.w3.org/2000/svg">
<rect opacity="0.5" x="0.25" y="0.25" width="502" height="188" stroke="#C44749" stroke-width="0.5"/>
<line opacity="0.5" x1="0.25" y1="55" x2="502.25" y2="55" stroke="#C44749" stroke-width="0.5"/>
<line opacity="0.5" x1="0.25" y1="133" x2="502.25" y2="133" stroke="#C44749" stroke-width="0.5"/>
<line opacity="0.5" x1="0.25" y1="152" x2="55.25" y2="152" stroke="#C44749" stroke-width="0.5"/>
<line opacity="0.5" x1="55.5" y1="0.25" x2="55.5" y2="188.25" stroke="#C44749" stroke-width="0.5"/>
<line opacity="0.5" x1="447.5" y1="0.25" x2="447.5" y2="188.25" stroke="#C44749" stroke-width="0.5"/>
<line opacity="0.5" x1="28.5" y1="0.25" x2="28.5" y2="15.25" stroke="#C44749" stroke-width="0.5"/>
<line opacity="0.5" x1="28.5" y1="40.25" x2="28.5" y2="55.25" stroke="#C44749" stroke-width="0.5"/>
<path d="M21.978 28.086L24.57 32.25H23.034L21.15 29.226L19.386 32.25H17.862L20.454 28.086L17.85 23.91H19.386L21.282 26.958L23.058 23.91H24.582L21.978 28.086ZM30.5119 20.922L27.2479 34.35H25.9039L29.1559 20.922H30.5119ZM32.8119 30.39C33.5799 29.726 34.1839 29.182 34.6239 28.758C35.0719 28.326 35.4439 27.878 35.7399 27.414C36.0359 26.95 36.1839 26.486 36.1839 26.022C36.1839 25.542 36.0679 25.166 35.8359 24.894C35.6119 24.622 35.2559 24.486 34.7679 24.486C34.2959 24.486 33.9279 24.638 33.6639 24.942C33.4079 25.238 33.2719 25.638 33.2559 26.142H31.9359C31.9599 25.23 32.2319 24.534 32.7519 24.054C33.2799 23.566 33.9479 23.322 34.7559 23.322C35.6279 23.322 36.3079 23.562 36.7959 24.042C37.2919 24.522 37.5399 25.162 37.5399 25.962C37.5399 26.538 37.3919 27.094 37.0959 27.63C36.8079 28.158 36.4599 28.634 36.0519 29.058C35.6519 29.474 35.1399 29.958 34.5159 30.51L33.9759 30.99H37.7799V32.13H31.9479V31.134L32.8119 30.39Z" fill="#7C8498"/>
<path d="M92.4022 55.25C71.327 55.25 54.25 72.7109 54.25 94.25C54.25 111.866 65.6636 126.747 81.3485 131.588C83.855 129.181 87.4976 124.77 88.6338 118.413C88.6338 118.413 89.9304 111.17 86.3832 104.237C85.6113 102.726 84.8177 102.167 84.1195 101.923C83.2522 101.617 82.2375 101.741 81.0016 102.287C77.9357 103.639 76.5351 106.245 75.6981 109.401C75.1951 111.294 74.4796 113.196 73.5126 114.885C72.6886 116.317 71.2056 115.993 70.3079 114.57C69.8136 113.781 69.1718 112.974 68.4042 112.509C66.5092 111.352 65.4901 109.831 65.5855 107.517C65.6332 106.241 65.3774 105.017 64.4103 104.002C62.5196 102.025 63.066 100.075 65.7199 99.5118C67.9142 99.0419 70.1475 98.7405 72.3764 98.4922C76.2966 98.0534 80.1083 98.3548 83.5645 100.593C83.5992 100.62 83.6946 100.558 83.9071 100.487C80.2297 97.3929 76.2532 95.2784 71.5091 94.9016C69.562 94.7509 67.602 94.6401 65.6852 94.2899C64.9307 94.1569 63.7815 93.5186 63.6905 92.9645C63.543 92.0513 63.8292 90.7082 64.4494 90.1009C65.5552 89.0193 66.4918 87.9066 67.1336 86.497C67.4805 85.7212 68.0833 85.3267 68.9636 85.5661C72.8924 86.6211 76.5481 88.1371 79.0632 91.6524C79.3277 92.0203 79.6617 92.3483 79.9609 92.6896C80.0953 92.5833 80.2297 92.4769 80.3598 92.3705C78.5905 89.6177 76.8993 86.8117 75.026 84.1299C73.7164 82.2548 73.6904 82.0464 75.8412 81.2042C75.9583 81.1554 76.0754 81.1155 76.1968 81.0712C79.0285 80.0783 80.0389 80.7166 80.7154 83.6555C81.0146 84.9499 81.4266 86.3197 82.1638 87.3836C83.352 89.0902 83.8637 90.8722 83.5688 92.8936C83.4084 94.0151 83.4214 95.0834 83.6035 96.1029C83.9331 97.9869 84.7483 99.2857 85.5809 100.553C87.0813 102.836 87.9096 105.514 89.0978 107.974C90.5028 110.878 91.2574 117.327 88.2912 133.024C89.0067 133.104 89.7309 133.161 90.4551 133.201C90.4508 129.792 91.0535 126.481 92.4716 123.396C96.7473 114.149 99.5617 104.224 102.792 94.4805C103.599 92.0469 104.804 89.6842 106.222 87.685C108.621 84.3027 112.445 83.5935 115.329 85.5262C118.031 87.3437 119.123 91.546 118 95.8635C116.53 101.498 113.126 105.407 109.405 108.865C106.647 111.436 103.66 113.661 100.706 115.9C95.3727 119.947 92.4065 126.503 92.129 133.246C92.2157 133.25 92.3068 133.25 92.3935 133.25C93.4993 133.25 94.5878 133.201 95.6719 133.108C95.8063 130.927 96.0101 128.693 96.4308 126.512C98.0396 118.316 102.242 114.198 109.241 113.169C111.73 113.174 114.839 112.655 117.445 110.279C119.982 107.961 120.836 104.991 121.201 105.19C121.808 105.523 121.751 111.148 118.651 116.166C117.298 118.36 115.104 122.762 110.498 124.712C105.533 126.818 101.873 124.486 99.605 127.044C98.2304 128.587 98.2347 130.927 98.4992 132.754C116.673 129.779 130.554 113.675 130.554 94.2544C130.554 72.7109 113.473 55.2544 92.4022 55.2544V55.25ZM92.3285 116.476C93.044 107.464 91.4742 101.436 89.7916 97.5037C88.9026 95.438 87.025 91.6878 87.3545 86.7053C87.528 84.121 88.2348 82.0331 88.8289 80.6412C93.4863 82.9995 96.0275 87.1087 97.1896 92.4724C99.128 101.462 96.4915 109.211 92.3285 116.476ZM108.369 79.932C107.116 80.0561 105.854 80.1713 104.635 80.5215C103.829 80.7609 103.087 81.1111 102.523 81.7805C102.02 82.3612 101.739 83.0615 101.522 83.793C101.24 84.7327 101.071 85.6991 100.923 86.6699C100.867 86.9757 100.824 87.2816 100.746 87.5875C100.72 87.2949 100.698 87.0068 100.659 86.7098C100.537 85.5085 100.42 84.3072 100.073 83.1502C99.8175 82.2947 99.4056 81.5322 98.6727 80.987C98.1393 80.588 97.5539 80.3176 96.9251 80.1536C96.0708 79.9364 95.1992 79.768 94.3362 79.5773C93.9937 79.5109 93.6381 79.471 93.2955 79.4089C93.2651 79.4089 93.2391 79.3956 93.1741 79.3734C93.6511 79.3247 94.0847 79.2803 94.527 79.2316C95.4854 79.1252 96.4524 78.9878 97.3978 78.7307C98.9025 78.3184 99.8739 77.3654 100.373 75.8671C100.667 74.9672 100.854 74.0363 101.014 73.0921C101.092 72.64 101.153 72.1834 101.223 71.7268C101.223 71.7091 101.236 71.6958 101.266 71.647C101.327 72.2853 101.387 72.8705 101.457 73.4733C101.556 74.3909 101.7 75.3041 101.973 76.1995C102.389 77.587 103.295 78.4691 104.622 78.9435C105.498 79.2449 106.383 79.4444 107.285 79.5995C107.801 79.6926 108.3 79.7768 108.816 79.8876C108.668 79.9009 108.521 79.9142 108.382 79.932H108.369Z" fill="#752D36"/>
<path d="M329.63 126.435C326.259 130.667 322.107 133.384 316.793 134.094C305.598 135.59 296.024 130.06 292.136 119.264C287.923 107.589 288.454 96.017 295.192 85.3198C300.101 77.5237 313.986 72.3185 322.328 78.5206C327.354 82.2587 329.009 90.1441 328.525 95.669C328.445 96.553 328.323 97.296 328.21 97.8367C327.702 99.2332 322.723 112.408 311.932 114.44C310.211 114.764 305.579 115.634 301.799 112.93C301.164 112.474 298.084 110.151 297.618 106.564C297.501 105.656 297.562 104.866 297.633 104.18C297.802 102.473 298.319 100.813 299.156 99.2426C300.143 97.3994 301.38 96.9527 303.294 97.7756C305.65 98.7912 306.726 100.752 307.371 103.127C307.756 104.551 308.306 105.981 309.049 107.25C309.684 108.327 310.822 108.083 311.513 107.015C311.894 106.423 312.388 105.816 312.975 105.463C314.433 104.594 315.214 103.451 315.143 101.711C315.105 100.752 315.303 99.8304 316.046 99.0687C317.499 97.5828 317.08 96.1158 315.04 95.6926C313.352 95.3399 311.635 95.1142 309.924 94.9261C306.91 94.597 303.98 94.8227 301.324 96.506C301.295 96.5248 301.225 96.4778 301.06 96.4261C303.886 94.0986 306.943 92.5092 310.591 92.2271C312.087 92.1143 313.596 92.0296 315.068 91.7663C315.646 91.6676 316.53 91.188 316.601 90.7695C316.714 90.083 316.493 89.072 316.018 88.6159C315.167 87.8025 314.447 86.9655 313.953 85.9075C313.685 85.3245 313.225 85.0282 312.548 85.2069C309.529 86.0016 306.717 87.1395 304.784 89.7821C304.582 90.0595 304.324 90.304 304.093 90.5626C303.99 90.4827 303.886 90.4027 303.788 90.3228C305.146 88.2539 306.449 86.1426 307.888 84.1255C308.894 82.7148 308.913 82.5597 307.262 81.9249C307.173 81.8873 307.084 81.859 306.99 81.8261C304.813 81.0785 304.037 81.5581 303.515 83.7681C303.284 84.7414 302.969 85.7712 302.4 86.5705C301.488 87.8542 301.093 89.1943 301.319 90.7131C301.639 92.8666 301.06 94.7568 299.772 96.4731C298.507 98.1517 297.703 100.056 297.068 102.054C293.871 112.117 298.488 123.209 305.951 127.982C307.244 128.626 317.174 133.408 324.985 128.574C326.085 127.892 327.34 126.9 328.544 125.419C328.906 125.758 329.273 126.091 329.635 126.43L329.63 126.435Z" fill="#752D36"/>
<path d="M198.511 86.9984C199.95 85.4279 200.979 84.0079 202.286 82.9217C207.891 78.2713 214.423 77.1804 221.462 78.1632C227.734 79.0378 232.399 82.08 235.013 87.9858C236.508 91.3666 237.087 94.9355 237.119 98.5937C237.162 103.174 237.129 107.749 237.129 112.328C237.129 116.024 236.96 119.734 237.19 123.416C237.416 127.018 238.06 130.591 238.549 134.391C236.099 134.391 233.419 134.447 230.748 134.329C230.339 134.311 229.761 133.558 229.615 133.041C229.102 131.179 228.731 129.279 228.327 127.389C228.195 126.769 228.101 126.143 227.969 125.4C226.803 127.258 225.914 129.12 224.621 130.643C220.23 135.825 214.404 136.695 208.136 135.519C202.696 134.499 198.581 131.588 196.964 126.063C195.196 120.012 196.414 114.407 200.932 110.015C204.36 106.681 208.376 103.963 212.095 100.931C213.045 100.155 213.962 99.3084 214.756 98.3774C216.689 96.111 217.032 92.1519 212.702 90.8964C210.064 90.13 207.398 89.4529 204.746 88.724C202.888 88.2162 201.031 87.6943 198.511 86.9984ZM227.795 106.192C227.711 106.188 227.631 106.183 227.546 106.178C227.546 104.184 227.607 102.186 227.532 100.197C227.363 95.5138 227.269 90.8165 225.599 86.3401C223.766 81.4123 220.469 79.2023 215.316 79.7149C212.231 80.0205 209.514 81.1396 207.999 84.1489C206.866 86.3965 207.393 87.7366 209.782 88.3996C211.136 88.7758 212.537 88.9686 213.896 89.3306C220.098 90.9763 222.059 95.843 218.73 101.33C218.184 102.228 217.563 103.089 216.891 103.893C214.366 106.898 211.719 109.799 209.274 112.869C206.025 116.951 205.244 121.634 206.523 126.637C207.393 130.046 209.278 132.632 212.993 133.239C215.861 133.704 218.607 133.177 221.052 131.527C224.866 128.96 226.366 125.001 226.869 120.75C227.443 115.93 227.508 111.054 227.791 106.202L227.795 106.192Z" fill="#752D36"/>
<path d="M193.256 100.489C189.969 98.1751 186.382 97.0984 182.615 96.8962C178.656 96.6846 174.673 96.8492 170.423 96.8492C170.982 109.272 169.327 121.784 172.153 134.268H158.809C161.108 125.678 160.337 116.969 160.412 108.318C160.511 96.8115 160.567 85.3009 160.436 73.7949C160.37 68.19 159.838 62.5898 159.519 56.9379H204.146C204.527 59.6933 204.898 62.3876 205.345 65.6133C194.634 57.916 182.662 58.6589 170.63 58.8987V94.6956C178.275 94.3994 186.142 95.904 193.256 90.9904V100.489Z" fill="#752D36"/>
<path d="M334.66 134.334C334.66 134.334 334.679 134.32 334.684 134.315H332.601C332.977 132.322 333.574 130.46 333.644 128.574C333.917 121.366 334.105 114.153 334.162 106.94C334.251 95.97 334.312 84.9906 334.162 74.0207C334.086 68.4158 333.522 62.8203 333.155 56.8675C336.437 56.3738 340.067 55.8284 343.923 55.25V57.0697C343.923 63.2153 343.923 69.3562 343.914 75.4971V76.4893C343.904 89.3824 343.9 102.275 343.918 115.169C343.928 120.289 343.904 125.419 344.854 130.53C352.166 130.54 346.218 130.568 350.13 130.521C352.796 130.488 355.467 130.347 358.015 129.402C360.023 128.659 361.913 127.761 362.891 125.541C364.043 127.573 365.134 132.326 366.272 134.334H334.66Z" fill="#752D36"/>
<path d="M431.184 101.772C434.72 94.4135 439.356 88.0939 440.748 80.2885C440.832 79.8277 441.448 79.1412 441.862 79.1082C443.592 78.9766 445.342 79.0518 447.486 79.0518C446.508 80.2038 445.657 80.9891 445.069 81.9389C441.914 87.0077 438.801 92.1001 435.731 97.2207C434.677 98.9745 433.723 100.799 432.858 102.656C432.571 103.268 432.416 104.208 432.684 104.763C437.118 113.927 441.627 123.059 446.141 132.185C446.47 132.848 446.973 133.427 447.641 134.405C446.559 134.405 445.779 134.405 444.998 134.405C442.121 134.405 439.248 134.376 436.37 134.419C435.467 134.433 434.969 134.193 434.804 133.224C433.845 127.488 431.287 122.33 428.912 117.106C428.118 115.357 427.295 113.617 426.251 111.369C423.627 116.753 421.088 121.695 418.827 126.759C417.938 128.753 417.722 131.038 417.124 133.168C416.993 133.629 416.56 134.329 416.231 134.353C414.454 134.471 412.662 134.409 410.706 134.409C412.54 131.687 414.35 129.322 415.817 126.754C418.93 121.314 421.869 115.78 424.845 110.26C425.061 109.86 425.165 109.192 424.982 108.807C420.679 99.6375 416.334 90.4826 411.971 81.337C411.632 80.627 411.129 79.9969 410.579 79.1412H422.706C424.022 87.0454 427.648 94.0844 431.184 101.782V101.772Z" fill="#752D36"/>
<path d="M275.414 134.282H262.31C265.098 122.302 263.932 110.236 264.007 98.2552C264.045 92.1895 263.405 86.1191 263.062 79.8371C266.09 79.3669 269.588 78.8215 273.308 78.2478V95.6455C274.549 92.4246 275.485 89.4764 276.801 86.7116C278.461 83.2226 280.742 80.1663 284.517 78.6475C286.822 77.7212 289.182 77.6836 291.796 78.4782C290.969 81.022 290.169 83.4812 289.318 86.0909C286.887 84.685 284.466 84.7132 282.148 85.7852C279.19 87.1488 277.657 89.8196 276.552 92.7161C274.587 97.8743 273.853 103.315 273.801 108.76C273.736 115.493 274.145 122.236 274.469 128.964C274.554 130.699 275.071 132.416 275.419 134.282H275.414Z" fill="#752D36"/>
<path d="M257.155 134.311H244.394C246.951 118.507 245.828 102.699 245.461 86.9138C245.433 85.743 245.249 84.5769 245.094 83.4155C244.948 82.3199 244.742 81.2337 244.525 79.9312C248.094 79.3717 251.639 78.8121 255.269 78.2432C255.349 78.6993 255.462 79.0284 255.462 79.3623C255.462 92.2131 255.486 105.059 255.415 117.91C255.387 123.219 255.81 128.452 257.15 133.596C257.202 133.803 257.155 134.033 257.155 134.315V134.311Z" fill="#752D36"/>
<path d="M404.543 77.6457C401.435 77.7774 398.322 77.9137 395.214 78.0454C395.378 80.7961 395.012 83.4998 393.916 86.0154C390.846 93.0685 388.913 100.592 386.656 107.993C386.092 109.841 385.222 111.646 384.178 113.184C382.415 115.78 379.495 116.405 377.228 115.018C375.112 113.715 374.177 110.584 374.938 107.311C375.935 103.042 378.46 100.028 381.239 97.338C383.299 95.3443 385.542 93.5999 387.761 91.846C391.894 88.578 394.029 83.3446 393.949 78.1018C393.051 78.1394 392.148 78.1771 391.25 78.2147C391.198 80.0344 391.109 81.9246 390.799 83.7678C389.755 89.9699 386.618 93.1626 381.267 94.103C379.354 94.1547 376.979 94.6202 375.032 96.4681C373.133 98.269 372.55 100.521 372.263 100.38C371.793 100.15 371.703 95.9133 373.97 92.0717C376.504 87.7787 380.059 87.2709 380.04 85.4559C380.026 83.9277 377.482 81.7977 365.892 79.3056C366.978 91.2582 367.072 97.7941 367.091 101.589C367.119 106.803 366.973 112.023 367.147 117.233C367.25 120.228 367.589 123.27 368.266 126.19C369.559 131.748 373.368 135.209 378.794 135.796C384.399 136.403 389.12 134.574 392.209 129.66C393.526 127.572 394.41 125.221 395.313 123.359C395.825 126.312 396.356 129.632 397.024 132.928C397.127 133.45 397.828 134.226 398.284 134.249C400.936 134.372 403.593 134.31 405.953 134.31C403.414 115.328 405.436 96.4964 404.543 77.6457ZM392.896 119.273C392.157 119.377 391.419 119.504 390.7 119.72C389.557 120.063 388.828 120.801 388.485 121.939C388.278 122.626 388.156 123.331 388.052 124.041C388.005 124.384 387.968 124.728 387.926 125.071C387.926 125.085 387.916 125.094 387.897 125.132C387.831 124.657 387.775 124.215 387.709 123.768C387.61 123.077 387.479 122.395 387.248 121.728C386.896 120.698 386.181 120.054 385.151 119.729C384.474 119.522 383.788 119.395 383.092 119.297C382.697 119.24 382.307 119.189 381.912 119.118C382.024 119.104 382.133 119.095 382.241 119.076C383.205 118.949 384.169 118.836 385.095 118.544C385.711 118.347 386.27 118.065 386.689 117.552C387.06 117.101 387.263 116.57 387.413 116.015C387.606 115.3 387.714 114.571 387.808 113.838C387.841 113.607 387.869 113.372 387.921 113.142C387.949 113.363 387.973 113.579 388.005 113.8C388.128 114.698 388.245 115.596 388.542 116.457C388.758 117.096 389.092 117.66 389.665 118.051C390.084 118.338 390.545 118.526 391.029 118.634C391.692 118.779 392.364 118.888 393.032 119.005C393.295 119.052 393.568 119.071 393.836 119.109C393.86 119.109 393.878 119.118 393.93 119.132C393.563 119.184 393.229 119.226 392.896 119.273ZM397.236 118.084C393.606 116.419 391.556 113.391 390.54 109.389C388.842 102.675 390.686 96.7879 393.718 91.23C393.088 99.0872 394.212 103.691 395.458 106.493C395.957 107.612 397.513 110.791 397.499 115.084C397.499 116.344 397.358 117.383 397.236 118.084Z" fill="#752D36"/>
<path d="M249.808 75.1161C249.704 74.3637 249.615 73.6537 249.512 72.9484C249.347 71.8434 249.14 70.7525 248.773 69.6946C248.209 68.0488 247.071 67.0238 245.426 66.5066C244.349 66.1727 243.249 65.9752 242.139 65.8153C241.518 65.726 240.893 65.6461 240.263 65.5332C240.437 65.5097 240.611 65.4909 240.785 65.4674C242.318 65.2605 243.855 65.0818 245.336 64.6163C246.319 64.306 247.208 63.8499 247.875 63.0364C248.463 62.317 248.788 61.4706 249.027 60.5866C249.338 59.4487 249.507 58.2779 249.662 57.1118C249.709 56.745 249.756 56.3736 249.841 56.0021C249.883 56.3501 249.925 56.7027 249.972 57.0507C250.165 58.4801 250.358 59.9142 250.824 61.2872C251.172 62.3123 251.708 63.2057 252.62 63.8311C253.283 64.2872 254.021 64.5881 254.797 64.7574C255.85 64.9878 256.922 65.1618 257.985 65.3498C258.408 65.4251 258.841 65.458 259.268 65.5144C259.306 65.5144 259.339 65.5332 259.419 65.5567C258.836 65.632 258.305 65.7025 257.773 65.7777C256.593 65.947 255.422 66.1445 254.275 66.4877C252.45 67.0379 251.289 68.2134 250.744 70.0331C250.414 71.1287 250.217 72.2478 250.057 73.3763C249.977 73.9264 249.921 74.4766 249.85 75.0267C249.85 75.0408 249.836 75.0596 249.808 75.1208V75.1161Z" fill="#752D36"/>
</svg>
