<svg width="190" height="192" viewBox="0 0 190 192" fill="none" xmlns="http://www.w3.org/2000/svg">
<line opacity="0.5" x1="0.25" y1="55" x2="189.25" y2="55" stroke="#C44749" stroke-width="0.5"/>
<line opacity="0.5" x1="0.25" y1="135" x2="189.25" y2="135" stroke="#C44749" stroke-width="0.5"/>
<line opacity="0.5" x1="55.5" y1="0.25" x2="55.5" y2="191.25" stroke="#C44749" stroke-width="0.5"/>
<line opacity="0.5" x1="134.5" y1="0.25" x2="134.5" y2="191.25" stroke="#C44749" stroke-width="0.5"/>
<line opacity="0.5" x1="28.5" y1="41.25" x2="28.5" y2="55.25" stroke="#C44749" stroke-width="0.5"/>
<line opacity="0.5" x1="28.5" y1="0.25" x2="28.5" y2="14.25" stroke="#C44749" stroke-width="0.5"/>
<path d="M23.19 27.78L25.35 31.25H24.07L22.5 28.73L21.03 31.25H19.76L21.92 27.78L19.75 24.3H21.03L22.61 26.84L24.09 24.3H25.36L23.19 27.78ZM30.3016 21.81L27.5816 33H26.4616L29.1716 21.81H30.3016ZM32.2183 29.7C32.8583 29.1467 33.3616 28.6933 33.7283 28.34C34.1016 27.98 34.4116 27.6067 34.6583 27.22C34.9049 26.8333 35.0283 26.4467 35.0283 26.06C35.0283 25.66 34.9316 25.3467 34.7383 25.12C34.5516 24.8933 34.2549 24.78 33.8483 24.78C33.4549 24.78 33.1483 24.9067 32.9283 25.16C32.7149 25.4067 32.6016 25.74 32.5883 26.16H31.4883C31.5083 25.4 31.7349 24.82 32.1683 24.42C32.6083 24.0133 33.1649 23.81 33.8383 23.81C34.5649 23.81 35.1316 24.01 35.5383 24.41C35.9516 24.81 36.1583 25.3433 36.1583 26.01C36.1583 26.49 36.0349 26.9533 35.7883 27.4C35.5483 27.84 35.2583 28.2367 34.9183 28.59C34.5849 28.9367 34.1583 29.34 33.6383 29.8L33.1883 30.2H36.3583V31.15H31.4983V30.32L32.2183 29.7Z" fill="#7C8498"/>
<rect opacity="0.5" x="0.25" y="0.25" width="189" height="190" stroke="#C44749" stroke-width="0.5"/>
<path d="M94.75 55.25C72.9303 55.25 55.25 73.1586 55.25 95.25C55.25 113.318 67.0668 128.58 83.3059 133.545C85.9009 131.076 89.6722 126.553 90.8485 120.033C90.8485 120.033 92.1909 112.604 88.5184 105.493C87.7192 103.943 86.8976 103.37 86.1748 103.12C85.2768 102.806 84.2262 102.934 82.9467 103.493C79.7725 104.879 78.3223 107.553 77.4558 110.79C76.935 112.731 76.1943 114.682 75.1931 116.414C74.34 117.882 72.8046 117.551 71.8752 116.091C71.3634 115.282 70.6989 114.454 69.9042 113.977C67.9423 112.79 66.8872 111.231 66.986 108.858C67.0353 107.548 66.7705 106.293 65.7693 105.252C63.8118 103.225 64.3775 101.224 67.1251 100.647C69.3969 100.165 71.7091 99.8556 74.0168 99.601C78.0754 99.1509 82.0218 99.46 85.6001 101.756C85.636 101.783 85.7348 101.72 85.9548 101.647C82.1475 98.4735 78.0305 96.3048 73.1188 95.9183C71.103 95.7637 69.0737 95.6501 67.0892 95.2909C66.308 95.1545 65.1183 94.4998 65.024 93.9315C64.8713 92.9949 65.1677 91.6174 65.8097 90.9945C66.9545 89.8851 67.9243 88.744 68.5888 87.2982C68.9479 86.5026 69.572 86.0979 70.4834 86.3434C74.551 87.4255 78.3358 88.9804 80.9398 92.5858C81.2137 92.9631 81.5594 93.2996 81.8692 93.6496C82.0084 93.5405 82.1475 93.4314 82.2822 93.3223C80.4504 90.4989 78.6995 87.621 76.7599 84.8704C75.4041 82.9472 75.3771 82.7335 77.604 81.8697C77.7252 81.8197 77.8465 81.7788 77.9722 81.7333C80.9039 80.7149 81.95 81.3696 82.6504 84.3839C82.9602 85.7115 83.3867 87.1163 84.1499 88.2075C85.3801 89.9579 85.9099 91.7856 85.6046 93.8588C85.4385 95.009 85.4519 96.1047 85.6405 97.1504C85.9817 99.0827 86.8258 100.415 87.6878 101.715C89.2412 104.057 90.0987 106.803 91.3289 109.326C92.7835 112.304 93.5647 118.919 90.4938 135.018C91.2346 135.1 91.9844 135.159 92.7342 135.2C92.7297 131.704 93.3537 128.308 94.8218 125.143C99.2486 115.659 102.162 105.48 105.507 95.4864C106.342 92.9904 107.59 90.5671 109.059 88.5166C111.541 85.0477 115.501 84.3202 118.487 86.3025C121.284 88.1666 122.415 92.4766 121.252 96.9049C119.73 102.684 116.206 106.694 112.354 110.24C109.499 112.877 106.405 115.159 103.348 117.455C97.8254 121.606 94.7545 128.33 94.4672 135.245C94.5569 135.25 94.6512 135.25 94.741 135.25C95.8859 135.25 97.0128 135.2 98.1352 135.105C98.2744 132.868 98.4854 130.576 98.9209 128.339C100.587 119.933 104.937 115.709 112.183 114.654C114.76 114.659 117.979 114.127 120.678 111.69C123.304 109.312 124.189 106.266 124.566 106.471C125.194 106.812 125.136 112.581 121.926 117.728C120.525 119.978 118.253 124.493 113.485 126.493C108.345 128.653 104.555 126.262 102.207 128.885C100.784 130.467 100.789 132.868 101.062 134.741C119.879 131.69 134.25 115.173 134.25 95.2545C134.25 73.1586 116.565 55.2545 94.75 55.2545V55.25ZM94.6737 118.046C95.4145 108.803 93.7892 102.62 92.0472 98.5871C91.1268 96.4685 89.1828 92.6221 89.524 87.5119C89.7036 84.8613 90.4355 82.7199 91.0505 81.2923C95.8724 83.711 98.5034 87.9256 99.7066 93.4269C101.713 102.647 98.9837 110.594 94.6737 118.046ZM111.281 80.5648C109.983 80.6921 108.677 80.8104 107.415 81.1695C106.58 81.415 105.813 81.7742 105.229 82.4607C104.708 83.0563 104.416 83.7747 104.192 84.5248C103.9 85.4887 103.725 86.4798 103.572 87.4755C103.514 87.7892 103.469 88.1029 103.388 88.4166C103.361 88.1166 103.339 87.821 103.298 87.5164C103.173 86.2843 103.051 85.0522 102.692 83.8656C102.427 82.9881 102.001 82.2061 101.242 81.6469C100.69 81.2377 100.084 80.9604 99.4327 80.7922C98.5483 80.5694 97.6458 80.3966 96.7524 80.2011C96.3977 80.1329 96.0296 80.092 95.6749 80.0284C95.6434 80.0284 95.6165 80.0147 95.5492 79.992C96.043 79.942 96.492 79.8965 96.9499 79.8465C97.9422 79.7374 98.9433 79.5964 99.9221 79.3327C101.48 78.9099 102.486 77.9324 103.002 76.3957C103.307 75.4728 103.5 74.518 103.666 73.5496C103.747 73.0859 103.81 72.6176 103.882 72.1493C103.882 72.1311 103.895 72.1175 103.927 72.0675C103.99 72.7222 104.053 73.3223 104.124 73.9406C104.228 74.8817 104.376 75.8183 104.659 76.7367C105.09 78.1597 106.028 79.0645 107.402 79.551C108.309 79.8601 109.225 80.0647 110.159 80.2239C110.693 80.3193 111.209 80.4057 111.743 80.5194C111.591 80.533 111.438 80.5467 111.294 80.5648H111.281Z" fill="#752D36"/>
</svg>
