<svg width="615" height="172" viewBox="0 0 615 172" fill="none" xmlns="http://www.w3.org/2000/svg">
<path d="M363.29 151.39C356.12 160.39 347.29 166.17 335.99 167.68C312.18 170.86 291.82 159.1 283.55 136.14C274.59 111.31 275.72 86.6999 290.05 63.9499C300.49 47.3699 330.02 36.2999 347.76 49.4899C358.45 57.4399 361.97 74.2099 360.94 85.9599C360.77 87.8399 360.51 89.4199 360.27 90.5699C359.19 93.5399 348.6 121.56 325.65 125.88C321.99 126.57 312.14 128.42 304.1 122.67C302.75 121.7 296.2 116.76 295.21 109.13C294.96 107.2 295.09 105.52 295.24 104.06C295.6 100.43 296.7 96.8999 298.48 93.5599C300.58 89.6399 303.21 88.6899 307.28 90.4399C312.29 92.5999 314.58 96.7699 315.95 101.82C316.77 104.85 317.94 107.89 319.52 110.59C320.87 112.88 323.29 112.36 324.76 110.09C325.57 108.83 326.62 107.54 327.87 106.79C330.97 104.94 332.63 102.51 332.48 98.8099C332.4 96.7699 332.82 94.8099 334.4 93.1899C337.49 90.0299 336.6 86.9099 332.26 86.0099C328.67 85.2599 325.02 84.7799 321.38 84.3799C314.97 83.6799 308.74 84.1599 303.09 87.7399C303.03 87.7799 302.88 87.6799 302.53 87.5699C308.54 82.6199 315.04 79.2399 322.8 78.6399C325.98 78.3999 329.19 78.2199 332.32 77.6599C333.55 77.4499 335.43 76.4299 335.58 75.5399C335.82 74.0799 335.35 71.9299 334.34 70.9599C332.53 69.2299 331 67.4499 329.95 65.1999C329.38 63.9599 328.4 63.3299 326.96 63.7099C320.54 65.3999 314.56 67.8199 310.45 73.4399C310.02 74.0299 309.47 74.5499 308.98 75.0999C308.76 74.9299 308.54 74.7599 308.33 74.5899C311.22 70.1899 313.99 65.6999 317.05 61.4099C319.19 58.4099 319.23 58.0799 315.72 56.7299C315.53 56.6499 315.34 56.5899 315.14 56.5199C310.51 54.9299 308.86 55.9499 307.75 60.6499C307.26 62.7199 306.59 64.9099 305.38 66.6099C303.44 69.3399 302.6 72.1899 303.08 75.4199C303.76 79.9999 302.53 84.0199 299.79 87.6699C297.1 91.2399 295.39 95.2899 294.04 99.5399C287.24 120.94 297.06 144.53 312.93 154.68C315.68 156.05 336.8 166.22 353.41 155.94C355.75 154.49 358.42 152.38 360.98 149.23C361.75 149.95 362.53 150.66 363.3 151.38L363.29 151.39Z" fill="white"/>
<path d="M84.4409 67.5198C87.5009 64.1798 89.6909 61.1598 92.4709 58.8498C104.391 48.9598 118.281 46.6398 133.251 48.7298C146.591 50.5898 156.511 57.0598 162.071 69.6198C165.251 76.8098 166.481 84.3998 166.551 92.1798C166.641 101.92 166.571 111.65 166.571 121.39C166.571 129.25 166.211 137.14 166.701 144.97C167.181 152.63 168.551 160.23 169.591 168.31C164.381 168.31 158.681 168.43 153.001 168.18C152.131 168.14 150.901 166.54 150.591 165.44C149.501 161.48 148.711 157.44 147.851 153.42C147.571 152.1 147.371 150.77 147.091 149.19C144.611 153.14 142.721 157.1 139.971 160.34C130.631 171.36 118.241 173.21 104.911 170.71C93.3409 168.54 84.5909 162.35 81.1509 150.6C77.3909 137.73 79.9808 125.81 89.5908 116.47C96.8808 109.38 105.421 103.6 113.331 97.1498C115.351 95.4998 117.301 93.6998 118.991 91.7198C123.101 86.8998 123.831 78.4798 114.621 75.8098C109.011 74.1798 103.341 72.7398 97.7008 71.1898C93.7508 70.1098 89.8009 68.9998 84.4409 67.5198ZM146.721 108.34C146.541 108.33 146.371 108.32 146.191 108.31C146.191 104.07 146.321 99.8198 146.161 95.5898C145.801 85.6298 145.601 75.6398 142.051 66.1198C138.151 55.6398 131.141 50.9398 120.181 52.0298C113.621 52.6798 107.841 55.0598 104.621 61.4598C102.211 66.2398 103.331 69.0898 108.411 70.4998C111.291 71.2998 114.271 71.7098 117.161 72.4798C130.351 75.9798 134.521 86.3298 127.441 97.9998C126.281 99.9098 124.961 101.74 123.531 103.45C118.161 109.84 112.531 116.01 107.331 122.54C100.421 131.22 98.7609 141.18 101.481 151.82C103.331 159.07 107.341 164.57 115.241 165.86C121.341 166.85 127.181 165.73 132.381 162.22C140.491 156.76 143.681 148.34 144.751 139.3C145.971 129.05 146.111 118.68 146.711 108.36L146.721 108.34Z" fill="white"/>
<path d="M73.26 96.2098C66.27 91.2898 58.64 88.9999 50.63 88.5699C42.21 88.1199 33.74 88.4698 24.7 88.4698C25.89 114.89 22.37 141.5 28.38 168.05H0C4.89 149.78 3.25 131.26 3.41 112.86C3.62 88.3898 3.74 63.9099 3.46 39.4398C3.32 27.5198 2.19 15.6098 1.51 3.58984H96.42C97.23 9.44984 98.02 15.1798 98.97 22.0398C76.19 5.66984 50.73 7.24984 25.14 7.75984V83.8898C41.4 83.2598 58.13 86.4599 73.26 76.0099V96.2098Z" fill="white"/>
<path d="M373.989 168.19C373.989 168.19 374.029 168.16 374.039 168.15H369.609C370.409 163.91 371.679 159.95 371.829 155.94C372.409 140.61 372.809 125.27 372.929 109.93C373.119 86.6 373.249 63.25 372.929 39.92C372.769 28 371.569 16.1 370.789 3.44C377.769 2.39 385.489 1.23 393.689 0V3.87C393.689 16.94 393.689 30 393.669 43.06V45.17C393.649 72.59 393.639 100.01 393.679 127.43C393.699 138.32 393.649 149.23 395.669 160.1C411.219 160.12 398.569 160.18 406.889 160.08C412.559 160.01 418.239 159.71 423.659 157.7C427.929 156.12 431.949 154.21 434.029 149.49C436.479 153.81 438.799 163.92 441.219 168.19H373.989Z" fill="white"/>
<path d="M579.269 98.9402C586.789 83.2902 596.649 69.8502 599.609 53.2502C599.789 52.2702 601.099 50.8102 601.979 50.7402C605.659 50.4602 609.379 50.6202 613.939 50.6202C611.859 53.0702 610.049 54.7402 608.799 56.7602C602.089 67.5402 595.469 78.3702 588.939 89.2602C586.699 92.9902 584.669 96.8702 582.829 100.82C582.219 102.12 581.889 104.12 582.459 105.3C591.889 124.79 601.479 144.21 611.079 163.62C611.779 165.03 612.849 166.26 614.269 168.34C611.969 168.34 610.309 168.34 608.649 168.34C602.529 168.34 596.419 168.28 590.299 168.37C588.379 168.4 587.319 167.89 586.969 165.83C584.929 153.63 579.489 142.66 574.439 131.55C572.749 127.83 570.999 124.13 568.779 119.35C563.199 130.8 557.799 141.31 552.989 152.08C551.099 156.32 550.639 161.18 549.369 165.71C549.089 166.69 548.169 168.18 547.469 168.23C543.689 168.48 539.879 168.35 535.719 168.35C539.619 162.56 543.469 157.53 546.589 152.07C553.209 140.5 559.459 128.73 565.789 116.99C566.249 116.14 566.469 114.72 566.079 113.9C556.929 94.4002 547.689 74.9302 538.409 55.4802C537.689 53.9702 536.619 52.6302 535.449 50.8102H561.239C564.039 67.6202 571.749 82.5902 579.269 98.9602V98.9402Z" fill="white"/>
<path d="M247.989 168.08H220.119C226.049 142.6 223.569 116.94 223.729 91.4601C223.809 78.5601 222.449 65.6501 221.719 52.2901C228.159 51.2901 235.599 50.1301 243.509 48.9101V85.9101C246.149 79.0601 248.139 72.7901 250.939 66.9101C254.469 59.4901 259.319 52.9901 267.349 49.7601C272.249 47.7901 277.269 47.7101 282.829 49.4001C281.069 54.8101 279.369 60.0401 277.559 65.5901C272.389 62.6001 267.239 62.6601 262.309 64.9401C256.019 67.8401 252.759 73.5201 250.409 79.6801C246.229 90.6501 244.669 102.22 244.559 113.8C244.419 128.12 245.289 142.46 245.979 156.77C246.159 160.46 247.259 164.11 247.999 168.08H247.989Z" fill="white"/>
<path d="M209.16 168.14H182.02C187.46 134.53 185.07 100.91 184.29 67.3399C184.23 64.8499 183.84 62.3699 183.51 59.8999C183.2 57.5699 182.76 55.2599 182.3 52.4899C189.89 51.2999 197.43 50.1099 205.15 48.8999C205.32 49.8699 205.56 50.5699 205.56 51.2799C205.56 78.6099 205.61 105.93 205.46 133.26C205.4 144.55 206.3 155.68 209.15 166.62C209.26 167.06 209.16 167.55 209.16 168.15V168.14Z" fill="white"/>
<path d="M522.61 47.6299C516 47.9099 509.38 48.1999 502.77 48.4799C503.12 54.3299 502.34 60.0799 500.01 65.4299C493.48 80.4299 489.37 96.4299 484.57 112.17C483.37 116.1 481.52 119.94 479.3 123.21C475.55 128.73 469.34 130.06 464.52 127.11C460.02 124.34 458.03 117.68 459.65 110.72C461.77 101.64 467.14 95.2299 473.05 89.5099C477.43 85.2699 482.2 81.5599 486.92 77.8299C495.71 70.8799 500.25 59.7499 500.08 48.5999C498.17 48.6799 496.25 48.7599 494.34 48.8399C494.23 52.7099 494.04 56.7299 493.38 60.6499C491.16 73.8399 484.49 80.6299 473.11 82.6299C469.04 82.7399 463.99 83.7299 459.85 87.6599C455.81 91.4899 454.57 96.2799 453.96 95.9799C452.96 95.4899 452.77 86.4799 457.59 78.3099C462.98 69.1799 470.54 68.0999 470.5 64.2399C470.47 60.9899 465.06 56.4599 440.41 51.1599C442.72 76.5799 442.92 90.4799 442.96 98.5499C443.02 109.64 442.71 120.74 443.08 131.82C443.3 138.19 444.02 144.66 445.46 150.87C448.21 162.69 456.31 170.05 467.85 171.3C479.77 172.59 489.81 168.7 496.38 158.25C499.18 153.81 501.06 148.81 502.98 144.85C504.07 151.13 505.2 158.19 506.62 165.2C506.84 166.31 508.33 167.96 509.3 168.01C514.94 168.27 520.59 168.14 525.61 168.14C520.21 127.77 524.51 87.7199 522.61 47.6299ZM497.84 136.16C496.27 136.38 494.7 136.65 493.17 137.11C490.74 137.84 489.19 139.41 488.46 141.83C488.02 143.29 487.76 144.79 487.54 146.3C487.44 147.03 487.36 147.76 487.27 148.49C487.27 148.52 487.25 148.54 487.21 148.62C487.07 147.61 486.95 146.67 486.81 145.72C486.6 144.25 486.32 142.8 485.83 141.38C485.08 139.19 483.56 137.82 481.37 137.13C479.93 136.69 478.47 136.42 476.99 136.21C476.15 136.09 475.32 135.98 474.48 135.83C474.72 135.8 474.95 135.78 475.18 135.74C477.23 135.47 479.28 135.23 481.25 134.61C482.56 134.19 483.75 133.59 484.64 132.5C485.43 131.54 485.86 130.41 486.18 129.23C486.59 127.71 486.82 126.16 487.02 124.6C487.09 124.11 487.15 123.61 487.26 123.12C487.32 123.59 487.37 124.05 487.44 124.52C487.7 126.43 487.95 128.34 488.58 130.17C489.04 131.53 489.75 132.73 490.97 133.56C491.86 134.17 492.84 134.57 493.87 134.8C495.28 135.11 496.71 135.34 498.13 135.59C498.69 135.69 499.27 135.73 499.84 135.81C499.89 135.81 499.93 135.83 500.04 135.86C499.26 135.97 498.55 136.06 497.84 136.16ZM507.07 133.63C499.35 130.09 494.99 123.65 492.83 115.14C489.22 100.86 493.14 88.3399 499.59 76.5199C498.25 93.2299 500.64 103.02 503.29 108.98C504.35 111.36 507.66 118.12 507.63 127.25C507.63 129.93 507.33 132.14 507.07 133.63Z" fill="white"/>
<path d="M193.53 42.2501C193.31 40.6501 193.12 39.1401 192.9 37.6401C192.55 35.2901 192.11 32.9701 191.33 30.7201C190.13 27.2201 187.71 25.0401 184.21 23.9401C181.92 23.2301 179.58 22.8101 177.22 22.4701C175.9 22.2801 174.57 22.1101 173.23 21.8701C173.6 21.8201 173.97 21.7801 174.34 21.7301C177.6 21.2901 180.87 20.9101 184.02 19.9201C186.11 19.2601 188 18.2901 189.42 16.5601C190.67 15.0301 191.36 13.2301 191.87 11.3501C192.53 8.9301 192.89 6.4401 193.22 3.9601C193.32 3.1801 193.42 2.3901 193.6 1.6001C193.69 2.3401 193.78 3.09011 193.88 3.83011C194.29 6.87011 194.7 9.9201 195.69 12.8401C196.43 15.0201 197.57 16.9201 199.51 18.2501C200.92 19.2201 202.49 19.8601 204.14 20.2201C206.38 20.7101 208.66 21.0801 210.92 21.4801C211.82 21.6401 212.74 21.7101 213.65 21.8301C213.73 21.8301 213.8 21.8701 213.97 21.9201C212.73 22.0801 211.6 22.2301 210.47 22.3901C207.96 22.7501 205.47 23.1701 203.03 23.9001C199.15 25.0701 196.68 27.5701 195.52 31.4401C194.82 33.7701 194.4 36.1501 194.06 38.5501C193.89 39.7201 193.77 40.8901 193.62 42.0601C193.62 42.0901 193.59 42.1301 193.53 42.2601V42.2501Z" fill="white"/>
</svg>
