<svg width="810" height="227" viewBox="0 0 810 227" fill="none" xmlns="http://www.w3.org/2000/svg">
<path d="M693.523 217.458C686.973 217.458 679.592 217.643 672.237 217.287C670.972 217.221 669.021 215.073 668.731 213.623C666.873 204.476 665.41 195.25 663.987 187.065C661.496 192.232 659.031 198.769 655.38 204.555C646.8 218.196 633.699 223.271 618.133 221.584C603.055 219.949 592.485 210.341 588.9 194.907C587.015 186.801 586.079 178.366 585.789 170.036C585.301 155.578 585.697 141.08 585.631 126.608C585.539 106.087 586.619 85.5124 582.296 64.7538C592.445 63.2512 602.291 61.7883 612.993 60.2066C612.993 62.4209 612.993 64.2793 612.993 66.1377C613.032 102.989 612.966 139.854 613.243 176.705C613.283 182.531 614.574 188.423 615.866 194.156C617.685 202.262 622.113 208.456 630.918 209.761C640.025 211.119 646.905 206.927 651.94 199.665C658.016 190.927 660.771 180.805 661.496 170.458C663.697 139.09 663.987 107.681 660.837 76.3259C660.468 72.5959 659.756 68.9055 659.15 64.846C669.272 63.2776 679.275 61.7355 689.609 60.1407C692.1 112.479 686.472 164.751 693.523 217.458Z" fill="#293B2D"/>
<path d="M478.82 199.533C469.369 211.396 457.731 219.014 442.838 221.004C411.456 225.195 384.621 209.695 373.721 179.434C361.912 146.708 363.401 114.271 382.288 84.2867C396.048 62.4341 434.969 47.8438 458.351 65.2283C472.44 75.7065 477.08 97.8095 475.722 113.296C475.498 115.774 475.155 117.856 474.839 119.372C473.416 123.287 459.458 160.217 429.21 165.911C424.386 166.82 411.403 169.259 400.807 161.68C399.027 160.402 390.394 153.891 389.089 143.834C388.76 141.291 388.931 139.076 389.129 137.152C389.603 132.368 391.053 127.715 393.399 123.313C396.167 118.146 399.633 116.894 404.998 119.201C411.601 122.048 414.619 127.544 416.425 134.2C417.506 138.193 419.048 142.2 421.13 145.759C422.91 148.777 426.099 148.092 428.037 145.1C429.104 143.439 430.488 141.739 432.136 140.75C436.221 138.312 438.409 135.109 438.212 130.233C438.106 127.544 438.66 124.961 440.742 122.825C444.815 118.66 443.642 114.548 437.922 113.362C433.19 112.374 428.379 111.741 423.582 111.214C415.133 110.291 406.922 110.924 399.475 115.642C399.396 115.695 399.199 115.563 398.737 115.418C406.658 108.894 415.226 104.439 425.453 103.648C429.645 103.332 433.875 103.095 438.001 102.357C439.622 102.08 442.1 100.736 442.297 99.5625C442.614 97.6382 441.994 94.8045 440.663 93.526C438.278 91.2458 436.261 88.8998 434.877 85.9343C434.126 84.2999 432.834 83.4696 430.936 83.9704C422.475 86.1979 414.593 89.3874 409.176 96.7947C408.609 97.5723 407.884 98.2576 407.238 98.9825C406.948 98.7585 406.658 98.5344 406.382 98.3104C410.191 92.5111 413.842 86.5933 417.875 80.939C420.695 76.985 420.748 76.55 416.122 74.7707C415.871 74.6653 415.621 74.5862 415.357 74.4939C409.255 72.3983 407.08 73.7427 405.617 79.9373C404.971 82.6656 404.088 85.552 402.494 87.7926C399.937 91.3908 398.829 95.1471 399.462 99.4043C400.358 105.441 398.737 110.739 395.126 115.55C391.58 120.255 389.327 125.593 387.547 131.195C378.585 159.4 391.528 190.492 412.445 203.87C416.069 205.675 443.905 219.08 465.798 205.53C468.882 203.619 472.401 200.838 475.775 196.687C476.79 197.636 477.818 198.571 478.833 199.52L478.82 199.533Z" fill="#293B2D"/>
<path d="M111.292 89.0051C115.326 84.6029 118.212 80.6225 121.876 77.5779C137.587 64.5428 155.894 61.485 175.625 64.2397C193.207 66.6912 206.281 75.2187 213.61 91.7729C217.801 101.249 219.422 111.253 219.514 121.507C219.633 134.345 219.541 147.169 219.541 160.006C219.541 170.366 219.066 180.765 219.712 191.085C220.345 201.181 222.15 211.198 223.521 221.847C216.654 221.847 209.142 222.005 201.655 221.676C200.509 221.623 198.887 219.514 198.479 218.065C197.042 212.845 196.001 207.52 194.867 202.222C194.498 200.482 194.235 198.729 193.866 196.647C190.597 201.853 188.106 207.072 184.482 211.343C172.171 225.867 155.841 228.306 138.272 225.01C123.023 222.15 111.49 213.992 106.956 198.505C102.001 181.543 105.414 165.832 118.08 153.522C127.689 144.177 138.944 136.559 149.37 128.058C152.032 125.883 154.602 123.511 156.83 120.901C162.247 114.548 163.209 103.45 151.07 99.9314C143.676 97.783 136.203 95.8851 128.769 93.8422C123.563 92.4187 118.357 90.9557 111.292 89.0051ZM193.378 142.806C193.141 142.793 192.917 142.78 192.68 142.767C192.68 137.178 192.851 131.577 192.64 126.002C192.166 112.874 191.902 99.7073 187.223 87.1599C182.083 73.3471 172.844 67.1525 158.398 68.5891C149.752 69.4458 142.134 72.5827 137.89 81.0179C134.714 87.318 136.19 91.0744 142.885 92.9328C146.681 93.9872 150.609 94.5275 154.418 95.5424C171.802 100.155 177.298 113.797 167.967 129.178C166.438 131.695 164.698 134.107 162.813 136.361C155.736 144.783 148.315 152.915 141.462 161.522C132.354 172.962 130.166 186.09 133.751 200.113C136.19 209.669 141.475 216.918 151.887 218.618C159.927 219.923 167.624 218.447 174.478 213.821C185.167 206.624 189.371 195.527 190.782 183.612C192.39 170.102 192.574 156.434 193.365 142.833L193.378 142.806Z" fill="#293B2D"/>
<path d="M96.5574 126.806C87.3445 120.321 77.2881 117.303 66.7308 116.736C55.6332 116.143 44.4696 116.604 32.5548 116.604C34.1233 151.426 29.4839 186.498 37.4051 221.491H0C6.44507 197.411 4.28353 173.002 4.49441 148.75C4.77119 116.499 4.92936 84.2339 4.56031 51.9822C4.37579 36.2715 2.88644 20.574 1.99019 4.73157H127.082C128.15 12.4551 129.191 20.0073 130.443 29.0488C100.406 7.47303 66.8494 9.55548 33.1348 10.2277V110.568C54.5656 109.737 76.6159 113.955 96.5574 100.182V126.806Z" fill="#293B2D"/>
<path d="M492.922 221.676C492.922 221.676 492.975 221.636 492.988 221.623H487.149C488.204 216.035 489.878 210.816 490.075 205.53C490.84 185.325 491.367 165.107 491.525 144.889C491.776 114.14 491.947 83.3641 491.525 52.6149C491.314 36.9043 489.733 21.22 488.705 4.53395C497.904 3.15004 508.079 1.62115 518.887 0V5.1007C518.887 22.3271 518.887 39.5403 518.861 56.7535V59.5345C518.834 95.6743 518.821 131.814 518.874 167.954C518.9 182.307 518.834 196.687 521.497 211.013C541.992 211.04 525.319 211.119 536.285 210.987C543.758 210.895 551.244 210.499 558.388 207.85C564.016 205.768 569.314 203.25 572.056 197.029C575.285 202.723 578.343 216.048 581.532 221.676H492.922Z" fill="#293B2D"/>
<path d="M763.484 130.404C773.395 109.777 786.391 92.0629 790.292 70.1839C790.529 68.8923 792.256 66.968 793.416 66.8757C798.266 66.5067 803.169 66.7176 809.179 66.7176C806.438 69.9467 804.052 72.1478 802.404 74.8102C793.561 89.0183 784.835 103.292 776.229 117.645C773.276 122.562 770.601 127.676 768.176 132.882C767.372 134.595 766.937 137.231 767.688 138.786C780.117 164.474 792.757 190.07 805.41 215.653C806.332 217.511 807.742 219.132 809.614 221.874C806.583 221.874 804.395 221.874 802.207 221.874C794.141 221.874 786.088 221.795 778.021 221.913C775.491 221.953 774.094 221.281 773.632 218.565C770.944 202.486 763.774 188.027 757.118 173.384C754.89 168.481 752.584 163.604 749.658 157.304C742.303 172.396 735.186 186.248 728.846 200.443C726.355 206.031 725.749 212.437 724.075 218.407C723.706 219.699 722.494 221.663 721.571 221.729C716.589 222.058 711.567 221.887 706.084 221.887C711.225 214.256 716.299 207.626 720.411 200.43C729.136 185.18 737.374 169.667 745.717 154.194C746.323 153.074 746.613 151.202 746.099 150.121C734.039 124.42 721.861 98.7584 709.63 73.1231C708.681 71.1329 707.271 69.3668 705.729 66.968H739.72C743.41 89.1237 753.572 108.854 763.484 130.43V130.404Z" fill="#293B2D"/>
<path d="M326.854 221.531H290.121C297.936 187.948 294.668 154.128 294.879 120.545C294.984 103.543 293.192 86.5273 292.229 68.9187C300.717 67.6007 310.523 66.0718 320.949 64.4638V113.23C324.428 104.202 327.051 95.9379 330.742 88.188C335.394 78.4084 341.787 69.8413 352.37 65.5841C358.828 62.9876 365.445 62.8822 372.773 65.1096C370.453 72.2401 368.213 79.1333 365.827 86.4482C359.013 82.5074 352.225 82.5864 345.727 85.5915C337.437 89.4137 333.14 96.9 330.043 105.019C324.534 119.478 322.478 134.727 322.333 149.989C322.148 168.863 323.295 187.764 324.204 206.624C324.442 211.488 325.891 216.298 326.867 221.531H326.854Z" fill="#293B2D"/>
<path d="M275.675 221.61H239.904C247.074 177.312 243.924 133 242.896 88.7548C242.817 85.4729 242.303 82.2043 241.868 78.9488C241.46 75.8778 240.88 72.8332 240.273 69.1823C250.277 67.6139 260.215 66.0455 270.39 64.4507C270.614 65.7292 270.93 66.6518 270.93 67.5875C270.93 103.609 270.996 139.617 270.798 175.638C270.719 190.518 271.906 205.188 275.662 219.607C275.807 220.187 275.675 220.832 275.675 221.623V221.61Z" fill="#293B2D"/>
<path d="M255.074 55.6858C254.784 53.577 254.534 51.5868 254.244 49.6098C253.783 46.5125 253.203 43.4547 252.175 40.4892C250.593 35.8762 247.404 33.0029 242.791 31.5531C239.772 30.6173 236.688 30.0637 233.578 29.6156C231.838 29.3652 230.085 29.1411 228.319 28.8248C228.807 28.7589 229.294 28.7062 229.782 28.6403C234.079 28.0604 238.388 27.5595 242.54 26.2547C245.295 25.3848 247.786 24.1063 249.657 21.8262C251.305 19.8096 252.214 17.4372 252.887 14.9594C253.756 11.7698 254.231 8.48793 254.666 5.21927C254.798 4.19122 254.929 3.14999 255.167 2.10876C255.285 3.08409 255.404 4.0726 255.536 5.04793C256.076 9.05467 256.617 13.0746 257.921 16.9232C258.897 19.7965 260.399 22.3007 262.956 24.0536C264.815 25.3321 266.884 26.1756 269.059 26.6501C272.011 27.2959 275.016 27.7836 277.995 28.3108C279.181 28.5217 280.393 28.6139 281.593 28.7721C281.698 28.7721 281.79 28.8248 282.015 28.8907C280.38 29.1016 278.891 29.2993 277.402 29.5102C274.093 29.9847 270.811 30.5382 267.596 31.5004C262.482 33.0424 259.226 36.3375 257.697 41.4382C256.775 44.5091 256.221 47.646 255.773 50.8092C255.549 52.3513 255.391 53.8934 255.193 55.4354C255.193 55.475 255.154 55.5277 255.074 55.699V55.6858Z" fill="#293B2D"/>
</svg>
