<svg width="112" height="148" viewBox="0 0 112 148" fill="none" xmlns="http://www.w3.org/2000/svg">
<path d="M55.5 0C24.8419 0 0 25.0721 0 56C0 81.2948 16.6033 102.662 39.4203 109.613C43.0665 106.157 48.3654 99.8236 50.0181 90.6961C50.0181 90.6961 51.9043 80.2955 46.7442 70.3405C45.6213 68.17 44.4669 67.368 43.4512 67.018C42.1896 66.5788 40.7135 66.757 38.9156 67.5399C34.4557 69.4812 32.4181 73.2239 31.2006 77.7559C30.4689 80.4737 29.428 83.2044 28.0213 85.6295C26.8227 87.6854 24.6653 87.2207 23.3595 85.1775C22.6403 84.0446 21.7067 82.8861 20.5901 82.2178C17.8334 80.5565 16.351 78.3733 16.4898 75.0507C16.5592 73.2176 16.187 71.4608 14.7802 70.0032C12.0298 67.1644 12.8247 64.3637 16.6853 63.5554C19.8773 62.8807 23.1261 62.4478 26.3685 62.0914C32.0712 61.4612 37.6161 61.8941 42.6438 65.1084C42.6943 65.1466 42.833 65.0575 43.1421 64.9557C37.7927 60.5128 32.0081 57.4767 25.1069 56.9357C22.2745 56.7192 19.4231 56.5601 16.6349 56.0573C15.5372 55.8663 13.8655 54.9498 13.7331 54.1541C13.5186 52.8429 13.9349 50.9143 14.837 50.0423C16.4456 48.4892 17.8082 46.8916 18.7418 44.8675C19.2465 43.7536 20.1233 43.1871 21.4039 43.5308C27.1192 45.0457 32.437 47.2226 36.0958 52.2701C36.4806 52.7984 36.9664 53.2694 37.4016 53.7595C37.5972 53.6067 37.7927 53.454 37.982 53.3012C35.4082 49.3485 32.948 45.3194 30.2228 41.4685C28.3177 38.7761 28.2799 38.4769 31.4088 37.2676C31.5791 37.1975 31.7494 37.1403 31.9261 37.0766C36.0454 35.6508 37.5152 36.5674 38.4993 40.7875C38.9345 42.6461 39.5338 44.6129 40.6062 46.1405C42.3347 48.591 43.0791 51.1498 42.6501 54.0523C42.4167 55.6626 42.4356 57.1966 42.7006 58.6606C43.18 61.3658 44.3659 63.2307 45.5771 65.0511C47.7598 68.3292 48.9647 72.1737 50.6931 75.7063C52.737 79.8754 53.8346 89.1366 49.5198 111.675C50.5606 111.79 51.6141 111.873 52.6676 111.93C52.6613 107.035 53.5381 102.281 55.6009 97.8504C61.8209 84.5729 65.9149 70.3214 70.6146 56.331C71.7879 52.8366 73.5416 49.444 75.6044 46.5733C79.0929 41.7168 84.6567 40.6983 88.8517 43.4735C92.7818 46.0832 94.3715 52.1173 92.7376 58.3169C90.5991 66.4069 85.6471 72.0209 80.2347 76.9857C76.2226 80.6774 71.8762 83.8727 67.5803 87.0871C59.8212 92.8984 55.5063 102.312 55.1026 111.994C55.2288 112 55.3612 112 55.4874 112C57.096 112 58.6794 111.93 60.2564 111.796C60.452 108.665 60.7485 105.457 61.3604 102.325C63.7007 90.556 69.8134 84.6429 79.9949 83.1662C83.6159 83.1725 88.1389 82.4278 91.9302 79.0161C95.6205 75.6872 96.8632 71.4226 97.3931 71.709C98.2763 72.1864 98.1943 80.2637 93.6839 87.469C91.7157 90.6197 88.5237 96.9402 81.8243 99.7408C74.6014 102.764 69.2772 99.4162 65.978 103.089C63.9783 105.304 63.9846 108.665 64.3694 111.287C90.8073 107.016 111 83.8918 111 56.0064C111 25.0721 86.1518 0.00636508 55.5 0.00636508V0ZM55.3928 87.9145C56.4336 74.9743 54.15 66.3178 51.7024 60.672C50.4092 57.7058 47.6778 52.321 48.1572 45.1666C48.4095 41.4558 49.4378 38.4578 50.302 36.4592C57.0771 39.8454 60.7737 45.7458 62.4643 53.4476C65.2841 66.356 61.4487 77.4821 55.3928 87.9145ZM78.727 35.4408C76.9039 35.619 75.0682 35.7845 73.2956 36.2873C72.1222 36.6311 71.0435 37.1339 70.2235 38.095C69.4917 38.9288 69.0817 39.9345 68.7663 40.9848C68.3562 42.3342 68.1102 43.7218 67.8957 45.1157C67.8137 45.5549 67.7506 45.9941 67.6371 46.4333C67.5992 46.0132 67.5677 45.5995 67.5109 45.173C67.3343 43.4481 67.164 41.7231 66.6593 40.0618C66.2871 38.8334 65.6878 37.7386 64.6217 36.9557C63.8458 36.3828 62.9942 35.9945 62.0795 35.759C60.8368 35.4471 59.5688 35.2053 58.3135 34.9316C57.8151 34.8361 57.2979 34.7788 56.7995 34.6897C56.7554 34.6897 56.7175 34.6706 56.6229 34.6388C57.3168 34.5688 57.9476 34.5051 58.591 34.4351C59.9852 34.2823 61.3919 34.085 62.7671 33.7158C64.9561 33.1239 66.3691 31.7554 67.0946 29.604C67.5235 28.3119 67.7948 26.9752 68.0282 25.6195C68.1417 24.9702 68.2301 24.3146 68.331 23.659C68.331 23.6336 68.3499 23.6145 68.3941 23.5444C68.4824 24.461 68.5707 25.3012 68.6716 26.1669C68.8167 27.4844 69.0249 28.7956 69.4223 30.0814C70.0279 32.0737 71.3463 33.3403 73.2767 34.0214C74.5509 34.4542 75.8378 34.7406 77.1499 34.9634C77.9006 35.0971 78.6261 35.218 79.3767 35.3771C79.1623 35.3962 78.9478 35.4153 78.7459 35.4408H78.727Z" fill="#F2EADC"/>
<line opacity="0.5" x1="0.25" y1="118" x2="0.249999" y2="148" stroke="#FA817A" stroke-width="0.5"/>
<line opacity="0.5" y1="132.75" x2="15.75" y2="132.75" stroke="#FA817A" stroke-width="0.5"/>
<path d="M22.3814 128.682L23.8814 131.102H23.9268L25.4268 128.682H26.2564L24.4268 131.591L26.2564 134.5H25.4268L23.9268 132.125H23.8814L22.3814 134.5H21.5518L23.4268 131.591L21.5518 128.682H22.3814ZM29.1392 128.409L27.2642 135.375H26.6506L28.5256 128.409H29.1392ZM29.9226 134.5V133.989L31.843 131.886C32.0684 131.64 32.254 131.426 32.3999 131.244C32.5457 131.061 32.6536 130.888 32.7237 130.727C32.7957 130.564 32.8317 130.394 32.8317 130.216C32.8317 130.011 32.7824 129.834 32.6839 129.685C32.5874 129.535 32.4548 129.42 32.2862 129.338C32.1177 129.257 31.9283 129.216 31.718 129.216C31.4946 129.216 31.2995 129.262 31.1328 129.355C30.968 129.446 30.8402 129.574 30.7493 129.739C30.6603 129.903 30.6158 130.097 30.6158 130.318H29.9453C29.9453 129.977 30.0239 129.678 30.1811 129.42C30.3383 129.163 30.5523 128.962 30.8232 128.818C31.0959 128.674 31.4018 128.602 31.7408 128.602C32.0817 128.602 32.3838 128.674 32.647 128.818C32.9103 128.962 33.1167 129.156 33.2663 129.401C33.416 129.645 33.4908 129.917 33.4908 130.216C33.4908 130.43 33.4519 130.639 33.3743 130.844C33.2985 131.046 33.166 131.273 32.9766 131.523C32.7891 131.771 32.5286 132.074 32.1953 132.432L30.8885 133.83V133.875H33.593V134.5H29.9226Z" fill="#949494"/>
<line opacity="0.5" x1="39.75" y1="132.75" x2="55.5" y2="132.75" stroke="#FA817A" stroke-width="0.5"/>
<line opacity="0.5" x1="55.75" y1="118" x2="55.75" y2="148" stroke="#FA817A" stroke-width="0.5"/>
<line opacity="0.5" x1="55.5" y1="132.75" x2="71.25" y2="132.75" stroke="#FA817A" stroke-width="0.5"/>
<path d="M77.8814 128.682L79.3814 131.102H79.4268L80.9268 128.682H81.7564L79.9268 131.591L81.7564 134.5H80.9268L79.4268 132.125H79.3814L77.8814 134.5H77.0518L78.9268 131.591L77.0518 128.682H77.8814ZM84.6392 128.409L82.7642 135.375H82.1506L84.0256 128.409H84.6392ZM85.4226 134.5V133.989L87.343 131.886C87.5684 131.64 87.754 131.426 87.8999 131.244C88.0457 131.061 88.1536 130.888 88.2237 130.727C88.2957 130.564 88.3317 130.394 88.3317 130.216C88.3317 130.011 88.2824 129.834 88.1839 129.685C88.0874 129.535 87.9548 129.42 87.7862 129.338C87.6177 129.257 87.4283 129.216 87.218 129.216C86.9946 129.216 86.7995 129.262 86.6328 129.355C86.468 129.446 86.3402 129.574 86.2493 129.739C86.1603 129.903 86.1158 130.097 86.1158 130.318H85.4453C85.4453 129.977 85.5239 129.678 85.6811 129.42C85.8383 129.163 86.0523 128.962 86.3232 128.818C86.5959 128.674 86.9018 128.602 87.2408 128.602C87.5817 128.602 87.8838 128.674 88.147 128.818C88.4103 128.962 88.6167 129.156 88.7663 129.401C88.916 129.645 88.9908 129.917 88.9908 130.216C88.9908 130.43 88.9519 130.639 88.8743 130.844C88.7985 131.046 88.666 131.273 88.4766 131.523C88.2891 131.771 88.0286 132.074 87.6953 132.432L86.3885 133.83V133.875H89.093V134.5H85.4226Z" fill="#949494"/>
<line opacity="0.5" x1="95.25" y1="132.75" x2="111" y2="132.75" stroke="#FA817A" stroke-width="0.5"/>
<line opacity="0.5" x1="111.25" y1="118" x2="111.25" y2="148" stroke="#FA817A" stroke-width="0.5"/>
</svg>
